<?xml version="1.0" encoding="UTF-8"?>
<!DOCTYPE svg PUBLIC "-//W3C//DTD SVG 1.1//EN" "http://www.w3.org/Graphics/SVG/1.1/DTD/svg11.dtd">
<svg xmlns="http://www.w3.org/2000/svg">
  <symbol id="actionid" viewBox="0 0 64 64"><circle cx="32" cy="7.956" r="7.956"/><circle cx="32" cy="32" r="7.956"/><circle cx="32" cy="56.044" r="7.956"/><circle cx="14.998" cy="14.998" r="7.956"/><circle cx="49.002" cy="49.002" r="7.956"/><circle cx="7.956" cy="32" r="7.956"/><circle cx="56.044" cy="32" r="7.956"/><circle cx="49.002" cy="14.998" r="7.956"/><circle cx="14.998" cy="49.002" r="7.956"/></symbol>
  <symbol id="add" viewBox="0 0 64 64"><path d="M32 64c-17.645 0-32-14.355-32-32s14.355-32 32-32 32 14.355 32 32-14.355 32-32 32zm0-60.484c-15.706 0-28.484 12.778-28.484 28.484s12.778 28.484 28.484 28.484 28.484-12.778 28.484-28.484-12.778-28.484-28.484-28.484zM14.989 30.11h34.022v3.78h-34.022zM30.11 14.989h3.78v34.022h-3.78z"/></symbol>
  <symbol id="date" viewBox="0 0 60.004 64"><g fill-rule="evenodd" clip-rule="evenodd"><path d="M9.002 44.001h6c.553 0 1-.447 1-1v-6c0-.553-.447-1-1-1h-6c-.553 0-1 .447-1 1v6c0 .552.447 1 1 1zM27.001 36.001h-6c-.553 0-1 .447-1 1v6c0 .553.447 1 1 1h6c.553 0 1-.447 1-1v-6c0-.553-.447-1-1-1zM39.001 36.001h-6c-.553 0-1 .447-1 1v6c0 .553.447 1 1 1h6c.553 0 1-.447 1-1v-6c0-.553-.447-1-1-1zM51 36.001h-6c-.553 0-1 .447-1 1v6c0 .553.447 1 1 1h6c.553 0 1-.447 1-1v-6c0-.553-.447-1-1-1zM9.002 56h6c.553 0 1-.447 1-1v-6c0-.553-.447-1-1-1h-6c-.553 0-1 .447-1 1v6c0 .553.447 1 1 1zM27.001 48h-6c-.553 0-1 .447-1 1v6c0 .553.447 1 1 1h6c.553 0 1-.447 1-1v-6c0-.552-.447-1-1-1zM39.001 48h-6c-.553 0-1 .447-1 1v6c0 .553.447 1 1 1h6c.553 0 1-.447 1-1v-6c0-.552-.447-1-1-1zM51 48h-6c-.553 0-1 .447-1 1v6c0 .553.447 1 1 1h6c.553 0 1-.447 1-1v-6c0-.552-.447-1-1-1zM9.002 32.001h41.998c.553 0 1-.447 1-1v-6c0-.553-.447-1-1-1h-41.998c-.553 0-1 .447-1 1v6c0 .553.447 1 1 1zM60.002 12c0-2.209-1.791-4-4-4h-4.004v-3.998c0-2.209-1.791-4-4-4h-4c-2.209 0-4 1.791-4 4v3.998h-19.999v-4c0-2.209-1.791-4-4-4h-4c-2.208 0-3.999 1.791-3.999 4v4h-3.998c-2.209 0-4 1.791-4 4l-.002 48c0 2.209 1.791 4 4 4h52c2.209 0 4.004-1.793 4.004-4.002l-.002-47.998zm-15.997-7c0-.553.447-1 1-1h2c.553 0 1 .447 1 1v6c0 .553-.447 1-1 1h-2c-.553 0-1-.447-1-1v-6zm-32 0c0-.553.447-1 1-1h2c.553 0 1 .447 1 1v6c0 .553-.447 1-1 1h-2c-.553 0-1-.447-1-1v-6zm43.995 55h-51.998v-39.999h51.998v39.999z"/></g></symbol>
  <symbol id="delete" viewBox="0 0 52.095 63.714"><path d="M16.029 19.896h4.007v32.058h-4.007zM24.044 19.896h4.007v32.058h-4.007zM32.058 19.896h4.007v32.058h-4.007zM0 7.875h52.095v4.007h-52.095zM35.925 9.878h-3.726v-4.007c0-1.182-.963-2.144-2.145-2.144h-8.014c-1.182 0-2.145.962-2.145 2.144v4.007h-3.725v-4.007c0-3.237 2.634-5.871 5.87-5.871h8.015c3.236 0 5.87 2.634 5.87 5.871v4.007zM38.069 63.714h-24.044c-3.234 0-6.066-2.492-6.312-5.715l-3.7-48.032 3.996-.274 3.7 47.988c.088 1.144 1.17 2.034 2.317 2.034h24.044c1.147 0 2.229-.874 2.317-2.017l3.7-48.036 3.994.338-3.7 47.984c-.246 3.222-3.078 5.73-6.312 5.73z"/></symbol>
  <symbol id="ad-display" viewBox="0 0 64 64">
  	<path d="M0,0v64l3-4l5,4l3-4l5,4l3-4l5,4l3-4l5,4l3-4l5,4l3-4l5,4l3-4l5,4l3-4l5,4V0H0z M52,45.3H12V12.7h40V45.3z" /><path d="M29.3,24.7l4.2,7.7l4.3-4.3l6,8.7h4.7V16H15.4v20.9L25.4,23L29.3,24.7z M41.4,18.6c1.4,0,2.6,1.2,2.6,2.6 s-1.2,2.6-2.6,2.6c-1.4,0-2.6-1.2-2.6-2.6S40,18.6,41.4,18.6z"/>
  </symbol>
  <symbol id="ad-native" viewBox="0 0 64 64">
  	<polygon points="25.1,15.5 25,15.5 22.7,22 27.3,22 	"/><path d="M39.3,26.6c0.2,0.1,0.4,0.2,0.7,0.3c0.3,0,0.5,0.1,0.8,0.1c0.7,0,1.2-0.1,1.6-0.3c0.4-0.2,0.7-0.5,0.8-0.8 c0.2-0.3,0.3-0.7,0.3-1c0-0.3,0.1-0.6,0.1-0.8v-1.3c-0.1,0.1-0.3,0.2-0.6,0.3c-0.2,0.1-0.5,0.1-0.7,0.2c-0.3,0-0.5,0.1-0.8,0.1 c-0.3,0-0.6,0.1-0.8,0.1c-0.3,0-0.5,0.1-0.8,0.2c-0.3,0.1-0.5,0.2-0.7,0.3c-0.2,0.1-0.3,0.3-0.5,0.5c-0.1,0.2-0.2,0.5-0.2,0.8 c0,0.3,0.1,0.6,0.2,0.8C38.9,26.3,39.1,26.4,39.3,26.6z"/><path d="M0,0v64l2.9-2.9L8,64l2.9-2.9L16,64l2.9-2.9L24,64l2.9-2.9L32,64l2.9-2.9L40,64l2.9-2.9L48,64l2.9-2.9 L56,64l2.9-2.9L64,64V0H0z M35.5,23.6c0.3-0.5,0.6-0.8,1-1.1c0.4-0.3,0.9-0.5,1.4-0.6c0.5-0.1,1-0.3,1.6-0.3 c0.5-0.1,1.1-0.1,1.6-0.2c0.5,0,1-0.1,1.4-0.2c0.4-0.1,0.7-0.2,0.9-0.4c0.2-0.2,0.3-0.5,0.3-0.8c0-0.4-0.1-0.7-0.2-0.9 c-0.1-0.2-0.3-0.4-0.5-0.5c-0.2-0.1-0.4-0.2-0.7-0.2c-0.3,0-0.6-0.1-0.9-0.1c-0.7,0-1.2,0.1-1.6,0.4c-0.4,0.3-0.6,0.8-0.7,1.5h-3.5 c0-0.8,0.3-1.5,0.6-2.1c0.4-0.5,0.8-1,1.4-1.3c0.6-0.3,1.2-0.6,1.9-0.7c0.7-0.1,1.4-0.2,2.1-0.2c0.6,0,1.3,0,2,0.1 c0.7,0.1,1.3,0.3,1.8,0.5c0.5,0.3,1,0.6,1.3,1.1c0.3,0.5,0.5,1.1,0.5,1.9v6.7c0,0.6,0,1.1,0.1,1.7c0.1,0.5,0.2,0.9,0.3,1.2h-3.6 c-0.1-0.2-0.1-0.4-0.2-0.6c0-0.2-0.1-0.4-0.1-0.6c-0.6,0.6-1.2,1-2,1.2c-0.8,0.2-1.5,0.3-2.3,0.3c-0.6,0-1.2-0.1-1.7-0.2 c-0.5-0.1-1-0.4-1.4-0.7c-0.4-0.3-0.7-0.7-0.9-1.2c-0.2-0.5-0.3-1.1-0.3-1.7C35.1,24.7,35.2,24.1,35.5,23.6z M23.1,11.1h4l6.6,17.8 h-4.1l-1.3-4h-6.6l-1.4,4h-3.9L23.1,11.1z M50.7,47.1H13.3v-4h37.5V47.1z M50.7,38H13.3v-4h37.5V38z"/>
  </symbol>
  <symbol id="ad-video" viewBox="0 0 64 64">
    <path d="M0,0v64l3-4l5,4l3-4l5,4l3-4l5,4l3-4l5,4l3-4l5,4l3-4l5,4l3-4l5,4l3-4l5,4V0H0z M32,46.3 c-9.9,0-18-8.1-18-18c0-9.9,8.1-18,18-18s18,8.1,18,18C50,38.2,41.9,46.3,32,46.3z"/><polygon points="26.9,28.3 26.9,40 41.5,28.3 26.9,16.6 	"/>
  </symbol>
  <symbol id="down" viewBox="0 0 64 64"><path d="M32 0c17.645 0 32 14.355 32 32s-14.355 32-32 32-32-14.355-32-32 14.355-32 32-32zm0 60.484c15.706 0 28.484-12.778 28.484-28.484s-12.778-28.484-28.484-28.484-28.484 12.778-28.484 28.484 12.778 28.484 28.484 28.484zM16.232 28.867l15.768 15.768 15.768-15.768 2.486 2.486-18.254 18.254-18.254-18.254zM30.11 14.989h3.78v32.132h-3.78z"/></symbol>
  <symbol id="edit" viewBox="0 0 64 64"><path d="M0 64l5.536-22.143 33.688-33.689 16.607 16.607-33.688 33.689-22.143 5.536zm9.349-19.984l-3.545 14.18 14.18-3.545 29.876-29.876-10.636-10.634-29.875 29.875zM18.455 57.208c-1.435-5.758-5.905-10.228-11.663-11.663l1.022-4.097c7.277 1.813 12.925 7.461 14.738 14.738l-4.097 1.022zM44.541 16.471l2.986 2.986-29.512 29.512-2.986-2.986zM2.902 61.098l6.587-1.647c-.607-2.431-2.509-4.333-4.94-4.94l-1.647 6.587zM57.386 23.221l-16.607-16.607 6.615-6.614 1.034.137c8.019 1.069 14.366 7.416 15.434 15.434l.138 1.035-6.614 6.615zm-10.635-16.607l10.635 10.635 2.121-2.119c-1.117-5.327-5.31-9.52-10.637-10.636l-2.119 2.12z"/></symbol>
  <symbol id="facebook" viewBox="0 0 32 64"><path d="M21.333 21.333v-6.35c0-2.867.633-4.317 5.083-4.317h5.584v-10.666h-8.533c-10.667 0-14.934 7.117-14.934 14.933v6.4h-8.533v10.667h8.533v32h12.8v-32h9.4l1.267-10.667h-10.667z"/></symbol>
  <symbol id="filter-off" viewBox="0 0 68.206 64.04"><g stroke="#9B9A9A" stroke-width="4.206" stroke-miterlimit="22.926" fill="none"><path d="M12.57 21.567l-8.607-6.68c-1.262-.981-1.86-2.413-1.86-4.013v-4.355c0-2.432 1.984-4.416 4.416-4.416h55.165c2.432 0 4.418 1.984 4.418 4.416v4.355c0 1.596-.568 3.078-1.862 4.013l-22.815 16.463-1.971 27.125c-.145 2.005-1.948 3.462-3.957 3.462h-2.787c-2.011 0-3.818-1.453-3.959-3.462l-.799-11.312"/><path stroke-linecap="round" stroke-linejoin="round" d="M17.503 27.427v22.873M6.066 38.863h22.873"/></g></symbol>
  <symbol id="filter-on" viewBox="0 0 68.206 64.04"><path stroke="#9B9A9A" stroke-width="4.206" stroke-miterlimit="22.926" d="M35.497 61.937h-2.787c-2.011 0-3.814-1.453-3.959-3.462l-1.972-27.125-22.816-16.463c-1.296-.935-1.86-2.413-1.86-4.013v-4.355c0-2.432 1.986-4.416 4.416-4.416h55.165c2.432 0 4.418 1.984 4.418 4.416v4.355c0 1.596-.566 3.078-1.862 4.013l-22.815 16.463-1.969 27.125c-.145 2.005-1.946 3.462-3.959 3.462z" fill="none"/></symbol>
  <symbol id="github" viewBox="0 0 64 62.42"><path fill-rule="evenodd" clip-rule="evenodd" d="M31.998 0c-17.669 0-31.998 14.327-31.998 32.002 0 14.137 9.168 26.131 21.885 30.363 1.6.293 2.184-.694 2.184-1.542 0-.76-.028-2.772-.043-5.443-8.901 1.934-10.78-4.29-10.78-4.29-1.455-3.697-3.553-4.681-3.553-4.681-2.905-1.985.22-1.945.22-1.945 3.211.226 4.902 3.298 4.902 3.298 2.855 4.89 7.49 3.478 9.313 2.659.291-2.068 1.117-3.478 2.032-4.278-7.106-.808-14.576-3.553-14.576-15.815 0-3.493 1.247-6.35 3.294-8.587-.329-.81-1.427-4.063.314-8.469 0 0 2.687-.86 8.8 3.28 2.552-.71 5.29-1.065 8.011-1.077 2.717.012 5.455.367 8.011 1.077 6.109-4.141 8.791-3.28 8.791-3.28 1.746 4.406.647 7.659.318 8.469 2.051 2.237 3.289 5.093 3.289 8.587 0 12.293-7.482 14.998-14.611 15.79 1.149.988 2.172 2.941 2.172 5.926 0 4.278-.039 7.729-.039 8.779 0 .856.576 1.851 2.2 1.539 12.706-4.241 21.866-16.227 21.866-30.36 0-17.675-14.328-32.002-32.002-32.002z"/></symbol>
  <symbol id="googleplus" viewBox="0 0 59.961 64"><path d="M36.744 40.755c-1.204-1.615-2.665-3.004-4.219-4.279-1.493-1.225-3.372-2.394-4.397-4.084-2.368-3.908 2.735-6.916 4.944-9.385 5.018-5.609 3.695-15.91-2.694-19.961 1.585 0 3.762.412 5.263-.041 1.739-.524 3.546-2.075 5.122-2.997-5.463 0-10.926-.019-16.389 0-5.103.018-10.389.743-14.447 4.086-4.616 3.804-7.085 10.044-5.194 15.895 2.2 6.808 9.351 9.717 15.997 8.903-.371 1.401-.983 2.51-.797 4.012.23 1.862 1.286 3.569 2.409 5.025-6.065.156-13.297 1.215-18.087 5.251-4.529 3.815-5.896 10.74-1.861 15.397 4.169 4.812 11.91 5.76 17.863 5.331 5.29-.381 10.535-2.042 14.367-5.849 4.517-4.488 6.15-11.894 2.12-17.304zm-14.823-13.979c-10.972 0-15.869-24.06-3.192-23.998 6.205.03 9.008 6.898 9.944 12.054.959 5.284-.174 11.944-6.752 11.944zm10.629 28.888c-3.602 6.161-13.694 5.572-19.292 3.103-5.813-2.564-8.762-10.114-3.406-14.852 2.337-2.068 5.782-2.983 8.798-3.404 1.665-.232 3.512-.438 5.192-.25 1.215.136 1.947.826 2.965 1.547 4.407 3.124 9.109 8.093 5.743 13.856zM59.961 7.999h-9v-7h-4v7h-8v4h8v10h4v-10h9z"/></symbol>
  <symbol id="impersonate" viewBox="0 0 64.001 41.319"><path d="M32 41.319c-21.629 0-31.409-19.062-31.815-19.873-.247-.495-.247-1.078 0-1.573.407-.811 10.186-19.873 31.815-19.873s31.409 19.062 31.815 19.873c.247.495.247 1.078 0 1.573-.406.811-10.185 19.873-31.815 19.873zm-28.23-20.66c2.042 3.465 11.184 17.143 28.23 17.143s26.189-13.678 28.23-17.143c-2.041-3.464-11.183-17.143-28.23-17.143s-26.188 13.679-28.23 17.143zM32 37.538c-9.307 0-16.878-7.572-16.878-16.879s7.572-16.879 16.878-16.879 16.878 7.572 16.878 16.879-7.571 16.879-16.878 16.879zm0-30.241c-7.369 0-13.364 5.994-13.364 13.363s5.996 13.362 13.364 13.362 13.364-5.994 13.364-13.363-5.995-13.362-13.364-13.362zM32 29.978c-5.139 0-9.318-4.181-9.318-9.319 0-.971.786-1.758 1.757-1.758.971 0 1.757.787 1.757 1.758 0 3.2 2.604 5.802 5.803 5.802s5.803-2.603 5.803-5.802-2.603-5.802-5.802-5.802c-.971 0-1.757-.787-1.757-1.758s.786-1.758 1.757-1.758c5.139 0 9.318 4.181 9.318 9.319s-4.179 9.318-9.318 9.318z"/></symbol>
  <symbol id="info" viewBox="0 0 64 64"><path d="M32 64c-17.645 0-32-14.355-32-32s14.355-32 32-32 32 14.355 32 32-14.355 32-32 32zm0-60.484c-15.706 0-28.484 12.778-28.484 28.484s12.778 28.484 28.484 28.484 28.484-12.778 28.484-28.484-12.778-28.484-28.484-28.484z"/><circle cx="32" cy="16.953" r="2.56"/><path d="M29.44 27.251h5.12v21.76h-5.12z"/></symbol>
  <symbol id="link" viewBox="0 0 64.156 64.021"><path d="M27.519 64.021c-1.95 0-3.78-.756-5.152-2.128l-20.237-20.237c-2.84-2.84-2.84-7.463 0-10.303l27.067-27.106c2.361-2.36 6.824-4.247 10.161-4.247h17.302c4.018 0 7.495 3.345 7.495 7.363v17.302c0 3.337-1.953 7.801-4.314 10.161l-27.12 27.067c-1.37 1.372-3.252 2.128-5.202 2.128zm11.839-59.021c-2.166 0-5.409 1.158-6.941 2.69l-27.067 26.975c-1.065 1.065-1.065 2.753 0 3.818l20.237 20.214c1.025 1.023 2.839 1.011 3.864-.012l26.949-27.073c1.532-1.532 2.756-4.782 2.756-6.947v-17.302c0-1.506-.989-2.363-2.496-2.363h-17.302zM45.733 27.239c-4.934 0-8.948-4.014-8.948-8.948s4.014-8.948 8.948-8.948 8.948 4.014 8.948 8.948-4.015 8.948-8.948 8.948zm0-13.661c-2.599 0-4.712 2.113-4.712 4.712s2.113 4.712 4.712 4.712 4.712-2.113 4.712-4.712-2.113-4.712-4.712-4.712z"/></symbol>
  <symbol id="menu" viewBox="0 0 64.001 48.175"><g fill-rule="evenodd" clip-rule="evenodd"><path d="M0 0h64.001v9.283h-64.001zM0 19.446h64.001v9.283h-64.001zM0 38.892h64.001v9.283h-64.001z"/></g></symbol>
  <symbol id="minus" viewBox="0 0 64 64"><path d="M32 64c-17.645 0-32-14.355-32-32s14.355-32 32-32 32 14.355 32 32-14.355 32-32 32zm0-60.484c-15.706 0-28.484 12.778-28.484 28.484s12.778 28.484 28.484 28.484 28.484-12.778 28.484-28.484-12.778-28.484-28.484-28.484zM14.989 30.11h34.022v3.78h-34.022z"/></symbol>
  <symbol id="nav-account" viewBox="0 0 64 64"><path d="M32 0c-17.645 0-32 14.356-32 32 0 17.645 14.355 32 32 32s32-14.355 32-32c0-17.644-14.355-32-32-32zm18.45 49.635v-1.263c0-4.363-5.043-5.956-7.74-7.11-.977-.418-2.819-1.302-4.71-2.226-.639-.312-1.214-1.143-1.286-1.851l-.209-2.069c1.446-1.347 2.749-3.222 2.97-5.313h.326c.513 0 .996-.384 1.072-.855l.512-3.162c.068-.675-.57-1.085-1.084-1.085l.032-.192c.066-.38.106-.748.13-1.105.034-.287.059-.585.071-.893.054-1.493-.199-2.798-.616-3.529-.425-1.022-1.071-2.014-1.97-2.865-2.499-2.366-5.398-3.288-7.871-1.386-1.683-.291-3.684.478-5.129 2.171-.789.924-1.28 1.981-1.49 3.021-.188.648-.313 1.433-.344 2.283-.034.945.059 1.81.233 2.509-.492.031-.985.436-.985 1.074l.51 3.162c.076.471.559.855 1.072.855h.293c.464 2.261 1.665 4.117 2.994 5.411l-.201 1.999c-.072.708-.647 1.538-1.286 1.853-1.828.893-3.628 1.752-4.706 2.195-2.539 1.045-7.742 2.747-7.742 7.11v.987c-4.236-4.563-6.85-10.654-6.85-17.357 0-14.09 11.464-25.554 25.555-25.554 14.092 0 25.555 11.464 25.555 25.554-.001 6.834-2.715 13.039-7.106 17.631z"/></symbol>
  <symbol id="nav-apps" viewBox="0 0 64 61.007"><path d="M32 0l7.597 23.482h24.403l-19.799 14.273 7.598 23.252-19.799-14.273-19.799 14.273 7.598-23.252-19.799-14.273h24.403z"/></symbol>
  <symbol id="nav-campaigns" viewBox="0 0 64 51.303"><path fill-rule="evenodd" clip-rule="evenodd" d="M58.361 30.204v16.946c0 1.184-.673 2.143-2.155 2.143-.358 0-1.244-.759-2.335-1.903v-45.487c1.091-1.144 1.977-1.903 2.335-1.903 1.616 0 2.155.959 2.155 2.143v17.375c2.918.081 5.639 2.435 5.639 5.343s-2.721 5.262-5.639 5.343zm-34.657 4.132c.134 0 0-19.378 0-19.378 14.797 0 23.568-6.461 28.193-10.89v41.159c-4.625-4.43-13.396-10.891-28.193-10.891zm-8.619 16.967l-4.31-17.012h-4.31s-1.28-2.892-1.864-6.43h-2.446c-1.19 0-2.155-.959-2.155-2.143v-2.143c0-1.184.965-2.143 2.155-2.143h2.446c.584-3.538 1.864-6.429 1.864-6.429h15.084v19.289h-4.31l.543 2.143h2.151l1.077 4.287h-2.142l2.681 10.582h-6.464z"/></symbol>
  <symbol id="nav-dashboards" viewBox="0 0 64 64"><path d="M32 0c-17.672 0-32 14.328-32 32s14.328 32 32 32 32-14.328 32-32-14.328-32-32-32zm-17.078 28.75c-2.623 0-4.75-2.127-4.75-4.75s2.127-4.75 4.75-4.75 4.75 2.127 4.75 4.75-2.127 4.75-4.75 4.75zm20.918 19.75c-.011.511-.099 1.178-.238 1.846-.069.331-.149.665-.24.976-.272.943-.575 1.535-.767 1.495l-6.64-1.376c-.192-.04-.235-.703-.109-1.677.042-.321.099-.66.168-.991.138-.668.323-1.315.516-1.788l7.049-17.301c.393-.965.694-.903.671.139l-.41 18.677zm-4.168-30c-2.623 0-4.75-2.127-4.75-4.75s2.127-4.75 4.75-4.75 4.75 2.127 4.75 4.75-2.127 4.75-4.75 4.75zm16.75 10.25c-2.623 0-4.75-2.127-4.75-4.75s2.127-4.75 4.75-4.75 4.75 2.127 4.75 4.75-2.127 4.75-4.75 4.75z"/></symbol>
  <symbol id="nav-sync" viewBox="0 0 64 64"><path d="M45.5,47c-3.5,2.9-8,4.7-12.9,4.7c-11.2,0-20.2-9.1-20.2-20.2h5.1L8.7,19.3L0,31.4h5.3 c0,15.1,12.2,27.3,27.3,27.3c6.6,0,12.7-2.4,17.4-6.3L45.5,47z"/><path d="M18.5,15.7c3.5-2.9,8-4.7,12.9-4.7c11.2,0,20.2,9.1,20.2,20.2h-5.1l8.7,12.2L64,31.3h-5.3 C58.7,16.2,46.5,4,31.4,4C24.8,4,18.7,6.4,14,10.3L18.5,15.7z"/></symbol>
  <symbol id="nav-forms" viewBox="0 0 64 60.354"><path d="M7.396 3.675c-2.03 0-3.675 1.646-3.675 3.675 0 2.03 1.646 3.675 3.675 3.675s3.675-1.646 3.675-3.675c0-2.03-1.645-3.675-3.675-3.675zm0-3.675c-4.059 0-7.35 3.291-7.35 7.35 0 4.059 3.291 7.35 7.35 7.35 4.059 0 7.35-3.291 7.35-7.35.001-4.059-3.291-7.35-7.35-7.35zm0 12.862c-3.044 0-5.513-2.469-5.513-5.513s2.469-5.513 5.513-5.513c3.043 0 5.513 2.469 5.513 5.513s-2.469 5.513-5.513 5.513zM0 22.654v14.7h14.7v-14.7h-14.7zm6.435 11.179l-3.282-3.282 1.368-1.368 1.915 1.915 4.103-4.103 1.368 1.368-5.472 5.47zM19.934 1.339h44.066v11.65h-44.066zM19.934 24.153h44.066v11.65h-44.066zM0 45.654v14.7h14.7v-14.7h-14.7zm6.435 11.179l-3.282-3.282 1.368-1.368 1.915 1.915 4.103-4.103 1.368 1.368-5.472 5.47zM19.934 47.153h44.066v11.65h-44.066z"/></symbol>
  <symbol id="nav-kb" viewBox="0 0 49.741 64"><path d="M40.472 10.114h-17.14v15.389c0 .498-.296.948-.753 1.146-.159.069-.328.102-.495.102-.312 0-.62-.117-.856-.339l-3.89-3.659-3.89 3.659c-.363.341-.894.434-1.351.237-.458-.198-.753-.648-.753-1.146v-15.389h-3.195c-1.086 0-1.969-.884-1.969-1.969 0-1.086.884-1.969 1.969-1.969h35.253c1.703 0 3.09-1.385 3.09-3.088s-1.386-3.088-3.09-3.088h-35.253c-4.494 0-8.149 3.654-8.149 8.145v46.591c0 5.108 4.158 9.264 9.268 9.264h31.204c5.111 0 9.268-4.156 9.268-9.264v-35.358c.001-5.108-4.157-9.264-9.268-9.264z"/></symbol>
  <symbol id="nav-links" viewBox="0 0 64 64"><path fill-rule="evenodd" clip-rule="evenodd" d="M27.219 45.514c-.096 1.439-.669 2.853-1.769 3.953l-6.55 6.55c-2.412 2.412-6.322 2.412-8.733 0l-2.183-2.183c-2.411-2.411-2.411-6.322 0-8.733l6.55-6.55c1.1-1.1 2.513-1.672 3.952-1.769l5.232-5.232c-4.495-1.903-9.886-1.03-13.55 2.635l-6.55 6.549c-4.823 4.823-4.823 12.643 0 17.466l2.183 2.184c4.823 4.823 12.643 4.823 17.466 0l6.55-6.55c3.664-3.664 4.537-9.055 2.634-13.551l-5.232 5.231zm33.164-39.714l-2.183-2.183c-4.823-4.823-12.643-4.823-17.466 0l-6.55 6.55c-3.664 3.664-4.537 9.055-2.634 13.55l5.232-5.232c.097-1.439.669-2.852 1.769-3.952l6.55-6.55c2.412-2.411 6.321-2.411 8.733 0l2.183 2.183c2.411 2.412 2.411 6.322 0 8.733l-6.55 6.55c-1.1 1.1-2.513 1.672-3.952 1.769l-5.232 5.232c4.495 1.903 9.887 1.03 13.551-2.634l6.55-6.55c4.822-4.822 4.822-12.642-.001-17.466zm-40.391 38.208c1.206 1.206 3.161 1.206 4.367 0l19.65-19.649c1.206-1.206 1.206-3.161 0-4.366-1.206-1.206-3.161-1.206-4.367 0l-19.65 19.649c-1.206 1.205-1.206 3.16 0 4.366z"/></symbol>
  <symbol id="nav-lists" viewBox="0 0 64 51.63"><g fill-rule="evenodd" clip-rule="evenodd"><path d="M14.062 0h49.938v7.371h-49.938zM0 0h7.564v7.371h-7.564zM14.062 14.753h49.938v7.371h-49.938zM0 14.753h7.564v7.371h-7.564zM14.062 29.506h49.938v7.371h-49.938zM0 29.506h7.564v7.371h-7.564zM14.062 44.259h49.938v7.371h-49.938zM0 44.259h7.564v7.371h-7.564z"/></g></symbol>
  <symbol id="nav-reports" viewBox="0 0 56.533 64"><path d="M20.48 0h15.573v64h-15.573zM40.96 20.218h15.573v43.782h-15.573zM0 33.178h15.573v30.822h-15.573z"/></symbol>
  <symbol id="nav-settings" viewBox="0 0 64 64"><path d="M61.66 27.34l-6.34-1.059c-.461-1.885-1.133-3.684-2.008-5.363l4.059-5.031c.863-1.064.824-2.594-.086-3.619l-2.519-2.838c-.914-1.025-2.43-1.242-3.586-.512l-5.422 3.408c-2.387-1.666-5.086-2.896-8-3.609l-1.063-6.377c-.222-1.35-1.39-2.34-2.761-2.34h-3.801c-1.367 0-2.539.99-2.758 2.34l-1.066 6.377c-2.41.59-4.668 1.541-6.73 2.797l-5.156-3.68c-1.109-.797-2.637-.672-3.606.297l-2.684 2.686c-.969.969-1.094 2.496-.297 3.607l3.688 5.166c-1.242 2.047-2.184 4.291-2.773 6.68l-6.41 1.07c-1.349.222-2.341 1.39-2.341 2.762v3.797c0 1.371.992 2.539 2.34 2.762l6.41 1.07c.484 1.965 1.188 3.842 2.121 5.582l-4.039 5.004c-.859 1.062-.824 2.594.086 3.619l2.52 2.838c.914 1.025 2.43 1.24 3.586.512l5.5-3.455c2.328 1.592 4.961 2.762 7.785 3.453l1.066 6.377c.219 1.35 1.391 2.34 2.758 2.34h3.801c1.371 0 2.539-.99 2.762-2.34l1.062-6.377c2.379-.582 4.609-1.516 6.652-2.748l5.371 3.834c1.109.799 2.637.672 3.605-.299l2.684-2.684c.969-.969 1.098-2.494.297-3.607l-3.824-5.359c1.246-2.055 2.191-4.305 2.777-6.701l6.34-1.059c1.352-.224 2.34-1.391 2.34-2.763v-3.797c0-1.371-.988-2.539-2.34-2.761zm-29.558 16.66c-6.627 0-12-5.373-12-12s5.373-12 12-12 12 5.373 12 12-5.373 12-12 12z"/></symbol>
  <symbol id="nav-support" viewBox="0 0 64 64"><path d="M54.628 9.372c-12.496-12.496-32.76-12.496-45.256 0s-12.496 32.76 0 45.256 32.76 12.496 45.256 0 12.496-32.76 0-45.256zm-7.713-1.656c1.862 1.146 3.624 2.518 5.238 4.131s2.986 3.376 4.131 5.238l-7.955 7.955c-.865-2.031-2.121-3.935-3.778-5.592-1.657-1.657-3.561-2.913-5.592-3.778l7.956-7.954zm-31.244 17.324l-7.955-7.955c1.146-1.862 2.518-3.624 4.131-5.238s3.376-2.986 5.238-4.131l7.955 7.955c-2.031.865-3.935 2.121-5.592 3.777-1.656 1.657-2.912 3.561-3.777 5.592zm1.414 31.244c-1.862-1.146-3.624-2.518-5.238-4.131-1.614-1.614-2.986-3.376-4.131-5.238l7.955-7.955c.865 2.031 2.121 3.935 3.778 5.592 1.657 1.657 3.561 2.913 5.592 3.778l-7.956 7.954zm6.076-15.445c-4.881-4.881-4.881-12.797 0-17.678s12.797-4.881 17.678 0 4.881 12.797 0 17.678-12.797 4.881-17.678 0zm15.799 7.49c2.031-.865 3.935-2.121 5.592-3.777 1.657-1.657 2.913-3.561 3.777-5.592l7.955 7.955c-1.146 1.862-2.518 3.624-4.131 5.238-1.614 1.614-3.376 2.986-5.238 4.131l-7.955-7.955z"/></symbol>
  <symbol id="nav-switchaccount" viewBox="0 0 64 64"><path d="M64 32c0-17.6-14.4-32-32-32s-32 14.4-32 32 14.4 32 32 32 32-14.4 32-32zm-22.4-17.6l11.2 11.2-11.2 11.2v-8h-12.8v-6.4h12.8v-8zm-19.2 35.2l-11.2-11.2 11.2-11.2v8h12.8v6.4h-12.8v8z"/></symbol>
  <symbol id="nav-calling" viewBox="0 0 64 64"><path d="M25.6,19.7c0.9-0.9,0.8-2.2,0-3l0,0c0,0-10.9-11-11-11c-0.8-0.9-2.2-0.8-3,0L7.9,9.4l14,14.1 C21.8,23.5,25.6,19.7,25.6,19.7L25.6,19.7z"/><path d="M31.9,41.7c2.7,2,5.6,3.7,8.1,1l13.6,13.5c-3.1,2.8-14.6,7.5-34.1-11.1l-0.5-0.5C0.3,25.4,4.8,13.7,7.5,10.4 L21.2,24c-2.6,2.6-0.8,5.6,1.2,8.2C24.3,34.7,29.2,39.7,31.9,41.7z"/><path d="M44.2,38.2c0.8-0.9,2.2-0.8,3,0l0,0c0,0,11.1,10.9,11.1,10.9c0.9,0.8,0.9,2.2,0.1,3l-3.7,3.9L40.6,42.1 C40.6,42.1,44.2,38.2,44.2,38.2L44.2,38.2z"/></symbol>
  <symbol id="nav-exchange" viewBox="0 0 64 64"><path fill-rule="evenodd" clip-rule="evenodd" d="M58.4,37.2v16.9c0,1.2-0.7,2.1-2.2,2.1c-0.4,0-1.2-0.8-2.3-1.9V8.9 C55,7.8,55.8,7,56.2,7c1.6,0,2.2,1,2.2,2.1v17.4c2.9,0.1,5.6,2.4,5.6,5.3C64,34.8,61.3,37.1,58.4,37.2z M23.7,41.3 c0.1,0,0-19.4,0-19.4c14.8,0,23.6-6.5,28.2-10.9v41.2C47.3,47.8,38.5,41.3,23.7,41.3z M15.1,58.3l-4.3-17H6.5c0,0-1.3-2.9-1.9-6.4 c-1.1,0-2.1,0-2.4,0c-1.2,0-2.2-1-2.2-2.1v-2.1c0-1.2,1-2.1,2.2-2.1c0.4,0,1.3,0,2.4,0C5.2,24.9,6.5,22,6.5,22h15.1v19.3h-4.3 l0.5,2.1h2.2l1.1,4.3h-2.1l2.7,10.6H15.1z"/></symbol>
  <symbol id="nav-direction" viewBox="0 0 64 64"><path d="M64,32.5L64,32.5c0-4.1-1.6-7.9-4.5-10.8c-2.9-2.9-6.7-4.5-10.8-4.5c0,0-13.6,0-14.4,0c-4.1,0-7.9,1.6-10.8,4.5 c-2.9,2.9-4.4,6.7-4.4,10.8v1.8c0,0.5,0.2,0.9,0.5,1.2c0.3,0.3,0.7,0.5,1.2,0.5l3.4,0c0.9,0,1.7-0.8,1.7-1.7v-1.8 c0-4.6,3.7-8.4,8.3-8.5c0.1,0,14.5,0,14.5,0c2.3,0,4.4,0.9,6,2.5c1.6,1.6,2.5,3.7,2.5,6c0,0,0,0,0,0c0,4.7-3.8,8.5-8.5,8.5L48,41 c-1,2.1-2.3,4.1-4.1,5.9c-0.3,0.3-0.7,0.6-1,0.9l5.8,0C57.2,47.7,64,40.9,64,32.5z"/><path d="M0,32.5L0,32.5c0,4.1,1.6,7.9,4.5,10.8c2.9,2.9,6.7,4.5,10.8,4.5c0,0,13.6,0,14.4,0c4.1,0,7.9-1.6,10.8-4.5 c2.9-2.9,4.4-6.7,4.4-10.8v-1.8c0-0.5-0.2-0.9-0.5-1.2c-0.3-0.3-0.7-0.5-1.2-0.5l-3.4,0c-0.9,0-1.7,0.8-1.7,1.7v1.8 c0,4.6-3.7,8.4-8.3,8.5c-0.1,0-14.5,0-14.5,0c-2.3,0-4.4-0.9-6-2.5c-1.6-1.6-2.5-3.7-2.5-6l0,0c0-4.7,3.8-8.5,8.5-8.5l0.7,0 c1-2.1,2.3-4.1,4.1-5.9c0.3-0.3,0.7-0.6,1-0.9l-5.8,0C6.8,17.3,0,24.1,0,32.5z"/></symbol>
  <symbol id="notes" viewBox="0 0 64 64"><g fill-rule="evenodd" clip-rule="evenodd"><path d="M55.634 64h-47.686c-4.39 0-7.948-3.56-7.948-7.952v-47.718c0-4.393 3.61-8.33 8-8.33h48c4.389 0 8 3.608 8 8v48c0 4.392-3.977 8-8.366 8zm4.366-56c0-2.196-1.805-4-4-4h-48c-2.195 0-4.026 2.133-4.026 4.33v47.718c0 2.196 1.779 3.976 3.974 3.976h47.686c2.194 0 4.366-1.827 4.366-4.024v-48zM12.736 16.32h38.613v4.8h-38.613zM12.736 29.12h38.613v4.8h-38.613zM12.736 41.92h38.613v4.8h-38.613z"/></g></symbol>
  <symbol id="notice" viewBox="0 0 64 64"><path d="M32 0c-17.672 0-32 14.328-32 32s14.328 32 32 32 32-14.328 32-32-14.328-32-32-32zm4.569 51.74h-9.137v-9.024h9.137v9.024zm.451-38.352l-1.36 24.929h-7.402l-1.278-24.929v-1.128h10.04v1.128z"/></symbol>
  <symbol id="overview" viewBox="0 0 63.999 58.063"><path d="M1281.34 768.527c17.645 0 32 14.355 32 32s-14.355 32-32 32-32-14.355-32-32 14.355-32 32-32zm0 60.483c15.706 0 28.484-12.778 28.484-28.484s-12.778-28.484-28.484-28.484-28.484 12.778-28.484 28.484 12.778 28.484 28.484 28.484zM1265.573 797.393l15.767 15.768 15.768-15.768 2.487 2.487-18.255 18.254-18.254-18.254zM1279.45 783.516h3.78v32.132h-3.78z"/><path fill="#010101" d="M-664.133-493.491l-256-198.715-256 198.715v-81.02l256-198.712 256 198.714v81.018zm-64-7.224v192h-128v-128h-128v128h-128v-192l192-144 192 144z"/><path fill="#9B9A9A" d="M63.999 34.966l-31.999-24.839-32 24.839v-10.127l32-24.839 32 24.839v10.127zm-7.999-.903v24h-16v-16h-16v16h-16v-24l24-18 24 18z"/></symbol>
  <symbol id="plus" viewBox="0 0 64 64"><path d="M32 64c-17.645 0-32-14.355-32-32s14.355-32 32-32 32 14.355 32 32-14.355 32-32 32zm0-60.484c-15.706 0-28.484 12.778-28.484 28.484s12.778 28.484 28.484 28.484 28.484-12.778 28.484-28.484-12.778-28.484-28.484-28.484zM14.989 30.11h34.022v3.78h-34.022zM30.11 14.989h3.78v34.022h-3.78z"/></symbol>
  <symbol id="reassign" viewBox="0 0 81.834 50"><path d="M69.353 46.874h-4.375v-39.373c0-1.206-.982-2.187-2.187-2.187h-37.186v-4.375h37.185c3.619 0 6.562 2.944 6.562 6.562v39.373zM67.165 50l-14.668-17.113 3.088-2.649 11.58 13.51 11.58-13.51 3.089 2.649zM56.228 49.061h-37.185c-3.619 0-6.562-2.944-6.562-6.562v-39.373h4.375v39.373c0 1.206.982 2.187 2.187 2.187h37.185v4.375zM26.248 19.762l-11.579-13.51-11.58 13.51-3.089-2.649 14.669-17.113 14.668 17.113z"/></symbol>
  <symbol id="rsocial-fight" viewBox="0 0 64 54.894"><path d="M34.269 0c-16.42 0-29.73 12.289-29.73 27.447 0 4.118.984 8.023 2.744 11.529l-7.032 12.725c-.391.707-.32 1.579.179 2.214.386.492.972.767 1.577.767.177 0 .355-.024.531-.072l15.395-4.228c4.688 2.852 10.302 4.514 16.336 4.514 16.42 0 29.73-12.289 29.73-27.447s-13.31-27.449-29.73-27.449zm-1.158 42.459c-.204.675-.538 1.313-.965 1.844-.355.441-.763.81-1.216 1.096-.252.162-.519.302-.789.413-.094.038-.193.057-.291.057-.174 0-.346-.059-.486-.172-.219-.177-.326-.46-.278-.739.049-.288.083-.547.104-.793.032-.414.032-.775-.001-1.097-.036-.369-.114-.717-.232-1.038-.104-.282-.244-.563-.439-.884-.182-.302-.382-.596-.611-.901-.263-.353-.571-.729-.81-1.016l-.012-.013-.086-.1-.131-.154-.069-.079.001-.001-.267-.317c-.22-.261-.449-.581-.688-.963-.454-.738-.782-1.542-.951-2.329-.178-.811-.194-1.688-.045-2.465.165-.89.52-1.558.789-1.96.313-.471.691-.878 1.123-1.208.27-.205.551-.378.838-.516.249-.118.542-.096.77.06.228.156.356.423.336.699-.015.209-.034.526-.024.862.011.404.051.77.119 1.088.073.354.187.679.34.972.167.324.357.589.52.807.193.254.413.516.668.797l.027.031.11.121.067.07.027.03.161.173.049.049.116.125.179.196.358.418c.508.623.93 1.301 1.253 2.011.354.777.582 1.609.659 2.406.083.82.003 1.679-.223 2.42zm14.267-4.3c-.447 1.478-1.178 2.876-2.114 4.04-.772.961-1.666 1.768-2.657 2.397-.763.492-1.562.877-2.372 1.142-.347.118-.697.212-1.061.283l-.148.014c-.208 0-.409-.083-.556-.236-.182-.189-.257-.457-.2-.714.068-.303.142-.654.218-1.034.102-.556.231-1.315.302-2.147.071-.918.07-1.71-.002-2.415-.078-.803-.248-1.564-.506-2.266-.229-.617-.535-1.235-.964-1.942-.403-.661-.841-1.307-1.339-1.974-.451-.605-.997-1.29-1.772-2.221l-.012-.013-.21-.243-.278-.327-.163-.188-.56-.669c-.497-.588-.999-1.29-1.522-2.129-.99-1.611-1.708-3.37-2.079-5.093-.391-1.78-.427-3.698-.101-5.397.286-1.545.883-3.033 1.728-4.298.688-1.035 1.517-1.927 2.463-2.649.742-.565 1.517-1.014 2.304-1.337.375-.156.754-.284 1.124-.381.248-.066.512-.003.706.167.193.169.291.424.26.68-.039.328-.08.7-.115 1.12-.049.631-.097 1.387-.074 2.174.023.886.112 1.689.262 2.388.159.772.41 1.486.746 2.128.29.563.639 1.104 1.132 1.757.422.555.908 1.136 1.486 1.775l.032.038.253.277.169.177.026.031c.106.13.234.26.358.386l.114.116.248.268.379.417c.165.171.484.542.797.929 1.117 1.371 2.042 2.854 2.747 4.405.777 1.703 1.276 3.525 1.444 5.27.179 1.816.008 3.648-.493 5.294z"/></symbol>
  <symbol id="rsocial-share" viewBox="0 0 64 54.894"><path d="M34.269 0c-16.42 0-29.73 12.288-29.73 27.447 0 4.118.984 8.023 2.744 11.529l-7.032 12.725c-.391.707-.32 1.579.179 2.214.386.491.972.767 1.577.767.177 0 .355-.024.531-.072l15.395-4.228c4.688 2.852 10.302 4.514 16.336 4.514 16.42 0 29.73-12.288 29.73-27.447s-13.31-27.449-29.73-27.449zm.047 38.668s-12.2-7.229-12.2-14.992c0-4.129 3.345-7.476 7.471-7.476 1.794 0 3.44.633 4.728 1.688 1.288-1.055 2.934-1.688 4.729-1.688 4.126 0 7.471 3.347 7.471 7.476.001 7.762-12.199 14.992-12.199 14.992z"/></symbol>
  <symbol id="schedule" viewBox="0 0 63.998 64"><path d="M31.999 64c-17.644 0-31.999-14.355-31.999-32s14.355-32 31.999-32 31.999 14.355 31.999 32-14.355 32-31.999 32zm0-60.484c-15.706 0-28.485 12.778-28.485 28.484s12.779 28.484 28.485 28.484 28.485-12.778 28.485-28.484-12.779-28.484-28.485-28.484zM42.515 48.457l-11.383-11.894v-21.563h2v19.998l11.421 10.787z"/></symbol>
  <symbol id="search" viewBox="0 0 64 64"><path d="M26.598 52.31c-14.42.244-26.351-11.291-26.594-25.712s11.291-26.351 25.712-26.594 26.351 11.291 26.594 25.712c.244 14.42-11.291 26.351-25.712 26.594zm-.819-48.543c-12.346.208-22.221 10.422-22.012 22.768.208 12.346 10.422 22.221 22.768 22.012s22.221-10.422 22.012-22.768-10.422-22.221-22.768-22.012zM45.794 42.933l18.206 18.206-2.86 2.86-18.206-18.206z"/></symbol>
  <symbol id="send" viewBox="0 0 64.133 64"><path d="M60.216.79l3.005 3.007-34.3 34.271-3.005-3.007zM64.133 23h-5v-18h-18v-5h23zM52.571 64h-45.714c-3.781 0-6.857-3.076-6.857-6.857v-45.715c0-3.781 3.076-6.857 6.857-6.857h25.143v4.571h-25.143c-1.261 0-2.286 1.026-2.286 2.286v45.714c0 1.26 1.025 2.286 2.286 2.286h45.714c1.261 0 2.286-1.026 2.286-2.286v-25.142h4.571v25.143c.001 3.781-3.075 6.857-6.857 6.857z"/></symbol>
  <symbol id="settings" viewBox="0 0 64 64.002"><path d="M32 47.097c-8.324 0-15.095-6.773-15.095-15.096s6.772-15.096 15.095-15.096 15.095 6.773 15.095 15.096-6.771 15.096-15.095 15.096zm0-27.047c-6.59 0-11.952 5.361-11.952 11.951s5.362 11.951 11.952 11.951 11.952-5.361 11.952-11.951-5.362-11.951-11.952-11.951zM36.514 64.002h-9.027l-2.605-7.81c-1.722-.506-3.383-1.194-4.956-2.052l-7.361 3.681-6.386-6.384 3.683-7.362c-.858-1.57-1.545-3.231-2.052-4.956l-7.81-2.604v-9.028l7.81-2.603c.507-1.725 1.194-3.386 2.052-4.956l-3.683-7.362 6.386-6.385 7.361 3.681c1.573-.858 3.234-1.546 4.956-2.052l2.605-7.81h9.027l2.605 7.81c1.722.506 3.383 1.194 4.956 2.052l7.361-3.681 6.386 6.385-3.683 7.362c.858 1.57 1.545 3.231 2.052 4.956l7.809 2.603v9.028l-7.81 2.603c-.507 1.725-1.194 3.386-2.052 4.956l3.683 7.362-6.386 6.384-7.361-3.681c-1.573.858-3.234 1.546-4.956 2.052l-2.604 7.811zm-6.762-3.145h4.497l2.423-7.269.829-.213c2.014-.517 3.941-1.314 5.725-2.37l.738-.437 6.851 3.426 3.18-3.18-3.427-6.852.437-.738c1.053-1.78 1.851-3.706 2.371-5.725l.213-.83 7.269-2.423v-4.495l-7.269-2.423-.213-.83c-.52-2.019-1.317-3.946-2.371-5.725l-.437-.738 3.427-6.852-3.18-3.18-6.851 3.426-.738-.437c-1.785-1.056-3.711-1.853-5.725-2.37l-.829-.213-2.423-7.269h-4.497l-2.423 7.269-.829.217c-2.014.517-3.941 1.314-5.725 2.37l-.738.437-6.851-3.426-3.18 3.18 3.427 6.852-.437.738c-1.053 1.78-1.851 3.706-2.371 5.725l-.213.83-7.269 2.423v4.495l7.269 2.423.213.83c.52 2.019 1.317 3.946 2.371 5.725l.437.738-3.427 6.852 3.18 3.18 6.851-3.426.738.437c1.785 1.056 3.711 1.853 5.725 2.37l.829.213 2.423 7.265z"/></symbol>
  <symbol id="tag" viewBox="0 0 64.156 64.021"><path d="M27.519 64.021c-1.95 0-3.78-.756-5.152-2.128l-20.237-20.237c-2.84-2.84-2.84-7.463 0-10.303l27.067-27.106c2.361-2.36 6.824-4.247 10.161-4.247h17.302c4.018 0 7.495 3.345 7.495 7.363v17.302c0 3.337-1.953 7.801-4.314 10.161l-27.12 27.067c-1.37 1.372-3.252 2.128-5.202 2.128zm11.839-59.021c-2.166 0-5.409 1.158-6.941 2.69l-27.067 26.975c-1.065 1.065-1.065 2.753 0 3.818l20.237 20.214c1.025 1.023 2.839 1.011 3.864-.012l26.949-27.073c1.532-1.532 2.756-4.782 2.756-6.947v-17.302c0-1.506-.989-2.363-2.496-2.363h-17.302zM45.733 27.239c-4.934 0-8.948-4.014-8.948-8.948s4.014-8.948 8.948-8.948 8.948 4.014 8.948 8.948-4.015 8.948-8.948 8.948zm0-13.661c-2.599 0-4.712 2.113-4.712 4.712s2.113 4.712 4.712 4.712 4.712-2.113 4.712-4.712-2.113-4.712-4.712-4.712z"/></symbol>
  <symbol id="target" viewBox="0 0 64 64"><path d="M46.655 30.071h3.985c-.967-8.548-7.776-15.344-16.33-16.295v3.991h-4.115v-3.992c-8.554.951-15.361 7.747-16.331 16.295h3.982v4.115h-3.995c.935 8.589 7.76 15.426 16.343 16.38v-3.991h4.115v3.991c8.582-.955 15.408-7.792 16.341-16.379h-3.996v-4.115zm-14.402 8.229c-3.409 0-6.173-2.764-6.173-6.173 0-3.408 2.764-6.172 6.173-6.172 3.408 0 6.172 2.764 6.172 6.172 0 3.409-2.764 6.173-6.172 6.173zM32 0c-17.672 0-32 14.328-32 32s14.328 32 32 32 32-14.328 32-32-14.328-32-32-32zm22.788 34.185c-.963 10.861-9.623 19.535-20.478 20.519v4.216h-4.115v-4.216c-10.854-.981-19.516-9.66-20.479-20.519h-4.213v-4.115h4.219c1-10.82 9.648-19.453 20.474-20.434v-4.213h4.115v4.213c10.825.981 19.471 9.614 20.473 20.434h4.217v4.115h-4.213z"/></symbol>
  <symbol id="time" viewBox="0 0 64 64"><path d="M32 11.428c-11.361 0-20.572 9.21-20.572 20.571 0 11.363 9.21 20.574 20.572 20.574 11.361 0 20.571-9.211 20.571-20.574 0-11.361-9.21-20.571-20.571-20.571zm10.977 23.242h-10.977c-1.443 0-2.67-1.227-2.67-2.671v-15.103c0-1.443 1.227-2.612 2.67-2.612 1.443 0 2.67 1.169 2.67 2.612v12.434h8.308c1.442 0 2.613 1.227 2.613 2.669-.001 1.444-1.171 2.671-2.614 2.671zm-10.977-34.67c-17.644 0-32 14.355-32 32.001 0 17.644 14.356 31.999 32 31.999s32-14.355 32-31.999c0-17.646-14.356-32.001-32-32.001zm0 56.707c-13.623 0-24.708-11.083-24.708-24.706 0-13.625 11.085-24.709 24.708-24.709 13.623 0 24.707 11.084 24.707 24.708 0 13.624-11.084 24.707-24.707 24.707z"/></symbol>
  <symbol id="tip" viewBox="0 0 40 64"><path d="M40 20c0 10.875-6.555 12.141-7.785 24 0 1.105-.895 2-2 2h-20.43c-1.106 0-2-.895-2-2h-.004c-1.226-11.859-7.781-13.125-7.781-24 0-11.047 8.953-20 20-20s20 8.953 20 20zm-10 28h-20c-1.105 0-2 .895-2 2s.895 2 2 2h20c1.105 0 2-.895 2-2s-.895-2-2-2zm0 6h-20c-1.105 0-2 .895-2 2s.895 2 2 2h20c1.105 0 2-.895 2-2s-.895-2-2-2zm-14 10h8c2.211 0 4-1.789 4-4h-16c0 2.211 1.789 4 4 4z"/></symbol>
  <symbol id="toggle" viewBox="0 0 64 64"><g><polygon points="32,40.2 15.4,23.8 48.6,23.8"/></g></symbol>
  <symbol id="up" x="32" y="32" viewBox="0 0 64 64"><path d="M32 64c-17.645 0-32-14.355-32-32s14.355-32 32-32 32 14.355 32 32-14.355 32-32 32zm0-60.484c-15.706 0-28.484 12.778-28.484 28.484s12.778 28.484 28.484 28.484 28.484-12.778 28.484-28.484-12.778-28.484-28.484-28.484zM47.768 35.133l-15.768-15.768-15.768 15.768-2.486-2.486 18.254-18.254 18.254 18.254zM30.11 16.879h3.78v32.132h-3.78z"/></symbol>
  <symbol id="upload" viewBox="0 0 52.445 64"><path d="M41.181 33.856l-14.959-14.959-14.958 14.959 2.037 2.037 11.373-11.372v39.479h3.097v-39.479l11.372 11.372z"/><path fill-rule="evenodd" clip-rule="evenodd" d="M45.889 0h-39.334c-3.596 0-6.555 3.226-6.555 6.826v34.907c0 3.599 2.916 6.517 6.513 6.517h10.27v-3.258h-10.27c-1.798 0-3.256-1.459-3.256-3.258v-34.908c0-1.8 1.501-3.548 3.299-3.548h39.334c1.799 0 3.278 1.478 3.278 3.278v35.138c0 1.8-1.779 3.297-3.578 3.297h-9.927v3.258h9.927c3.597 0 6.855-2.956 6.855-6.555v-35.138c0-3.599-2.959-6.556-6.556-6.556z"/></symbol>
  <symbol id="url" viewBox="0 0 64 64"><path d="M54.627 9.373c6.045 6.044 9.373 14.08 9.373 22.627s-3.329 16.583-9.373 22.627c-6.044 6.044-14.08 9.373-22.627 9.373s-16.583-3.329-22.627-9.373c-6.044-6.044-9.373-14.079-9.373-22.627s3.328-16.583 9.373-22.627c6.044-6.044 14.08-9.373 22.627-9.373s16.583 3.329 22.627 9.373zm-2.828 42.426c3.941-3.941 6.562-8.85 7.642-14.191-.842 1.24-1.648 1.7-2.146-1.075-.514-4.524-4.669-1.634-7.282-3.241-2.75 1.854-8.932-3.604-7.881 2.552 1.621 2.776 8.75-3.716 5.197 2.159-2.267 4.101-8.29 13.183-7.507 17.891.099 6.859-7.008 1.43-9.457-.845-1.647-4.557-.561-12.523-4.869-14.755-4.675-.203-8.688-.628-10.5-5.854-1.09-3.739 1.16-9.306 5.167-10.165 5.866-3.685 7.961 4.316 13.462 4.465 1.708-1.787 6.364-2.355 6.75-4.359-3.609-.637 4.579-3.035-.345-4.399-2.717.32-4.467 2.817-3.023 4.935-5.265 1.228-5.433-7.619-10.494-4.829-.129 4.412-8.264 1.43-2.815.536 1.872-.818-3.054-3.188-.393-2.758 1.307-.071 5.708-1.613 4.517-2.65 2.451-1.521 4.51 3.643 6.909-.118 1.732-2.892-.726-3.426-2.897-1.96-1.224-1.37 2.161-4.33 5.146-5.609.995-.426 1.945-.658 2.672-.593 1.504 1.737 4.284 2.038 4.43-.209-3.725-1.785-7.831-2.727-12.082-2.727-6.101 0-11.904 1.939-16.707 5.524 1.291.591 2.023 1.327.78 2.268-.966 2.878-4.886 6.742-8.326 6.195-1.787 3.082-2.964 6.476-3.467 10.034 2.882.953 3.546 2.841 2.927 3.472-1.469 1.28-2.371 3.096-2.836 5.083.938 5.74 3.636 11.03 7.829 15.223 5.29 5.289 12.321 8.201 19.8 8.201 7.479 0 14.511-2.912 19.799-8.201z"/></symbol>
  <symbol id="prev" viewbox="0 0 16 63.2"><polygon points="0,32 16,16 16,48 	"/></symbol>
  <symbol id="next" viewbox="0 0 16 63.2"><polygon points="16,32 0,48 0,16"/></symbol>
  <symbol id="checkmark" viewBox="0 0 64 64"><path d="m63.1 11.3c-1.3-1.3-3.3-1.3-4.6 0l-34.6 34.5-18.4-18.4c-1.3-1.3-3.3-1.3-4.6 0s-1.3 3.3 0 4.6l20.7 20.7c1.3 1.3 3.3 1.3 4.6 0l36.8-36.8c1.3-1.3 1.3-3.3 0.1-4.6z" fill="000000"/></symbol>
</svg>