<svg id="revere" xmlns="http://www.w3.org/2000/svg">
  <title> Revere Platform v3 Icons</title>
  <!--SUITE -->
  <symbol id="suite-app-dashboard" viewBox="0 0 19 19">
    <path fill-rule="evenodd" clip-rule="evenodd" d="M7.7 0c-.3 0-.6.3-.6.6v17.8c0 .3.3.6.6.6h3.6c.3 0 .6-.3.6-.6V.6c0-.3-.3-.6-.6-.6H7.7zM4.2 9.5H.6c-.3 0-.6.3-.6.6v8.3c0 .3.3.6.6.6h3.6c.3 0 .6-.3.6-.6v-8.3c0-.3-.3-.6-.6-.6M18.4 4.8h-3.6c-.3 0-.6.3-.6.6v13.1c0 .3.3.6.6.6h3.6c.3 0 .6-.3.6-.6V5.3c0-.3-.3-.5-.6-.5"/>
  </symbol>
  <symbol id="suite-app-mobile" viewBox="0 0 19 19">
    <g fill-rule="evenodd">
      <path d="M8.313 0C3.72 0 0 2.687 0 6c0 2.064 1.34 3.83 3.536 4.91 0 1.66-1.038 2.36-1.145 2.51-.01.036-.03.124.02.19.05.07.15.104.3.104 1.86 0 3.62-1.37 4.01-1.828.52.073 1.058.114 1.607.114 4.59 0 8.31-2.687 8.31-6s-3.72-6-8.31-6z"/>
      <path d="M19 9.388c0-1.067-.45-2.058-1.222-2.88-.35 3.7-4.455 6.635-9.465 6.635-.39 0-.785-.02-1.18-.056-.027.024-.062.048-.09.072 1.27.84 2.964 1.37 4.832 1.37.47 0 .93-.04 1.374-.1.33.39 1.84 1.56 3.43 1.56.13 0 .21-.03.25-.09.04-.06.02-.13.01-.168-.09-.127-.98-.726-.98-2.15 1.88-.927 3.03-2.44 3.03-4.21"/>
    </g>
  </symbol>
  <symbol id="suite-app-calling" viewBox="0 0 19 17">
    <path fill-rule="evenodd" d="M11.93 12.59c.207-.02.37-.22.544-.387.383-.367 1.33-1.8 1.33-1.8s.373-.404.925-.072c.55.338 1.772 1.16 3.9 2.43.333.27.184.7.184.7s-1.49 2.29-3.82 3.41c-.524.315-1.74-.02-1.74-.02S3.47 14.76.1 5.24C-.11 4.81.08 4.044.08 4.044S.37 2.344 3.065.16c.436-.35.902-.016.902-.016s1.436 1.32 3.08 3.492c.083.11.098.252.077.384-.024.158-.1.3-.176.345C5.8 5.235 5.126 6.127 5 6.285c-.123.16-.123.443.138.754.263.31 2.344 3.49 6.014 5.28.232.11.527.29.776.27z"/>
  </symbol>
  <symbol id="suite-app-direction" viewBox="0 0 19 19">
    <path d="M17.4 1.6C16.4.6 15 0 13.6 0s-2.8.6-3.8 1.6L6.2 5.2c-1 1-1.6 2.4-1.6 3.8s.6 2.8 1.6 3.8l.4.4c.1.1.3.2.4.2.2 0 .3-.1.4-.2l.8-.8c.2-.2.2-.6 0-.8L8 11C6.9 9.9 6.8 8 8 6.8l3.6-3.6c.6-.6 1.3-.9 2.1-.9s1.5.3 2.1.9c1.2 1.2 1.2 3 0 4.2l-.2.2c.3.8.5 1.6.5 2.5v.5l1.4-1.4c2-2.2 2-5.5-.1-7.6zM5.3 19"/><path d="M12.2 5.9c-.1-.1-.3-.2-.4-.2-.2 0-.3.1-.4.2l-.8.8c-.2.2-.2.6 0 .8l.4.5c1.1 1.1 1.2 3 0 4.2l-3.6 3.6c-.6.6-1.3.9-2.1.9s-1.5-.3-2.1-.9c-1.2-1.2-1.2-3 0-4.2l.2-.2c-.3-.8-.4-1.6-.4-2.5v-.5L1.6 9.9c-2.1 2.1-2.1 5.5 0 7.6 1 1 2.4 1.6 3.8 1.6s2.8-.6 3.8-1.6l3.6-3.6c1-1 1.6-2.4 1.6-3.8s-.6-2.8-1.6-3.8l-.6-.4z"/>
  </symbol>
  <symbol id="suite-app-exchange" viewBox="0 0 19 19">
    <g><path fill-rule="evenodd" d="M17.81 5.344l.003-4.75c0-.23-.134-.44-.344-.538C17.39.02 17.3 0 17.22 0c-.14 0-.275.048-.384.14-1.712 1.444-5.093 3.423-8.523 3.423H1.186C.532 3.563 0 4.093 0 4.75v5.938c0 .656.532 1.187 1.188 1.187h7.2c3.386 0 6.765 1.58 8.476 2.852.105.077.23.117.355.117.09 0 .18-.02.262-.064.2-.1.328-.305.328-.53l-.002-4.156h.595c.328 0 .594-.266.594-.594V5.937c0-.328-.267-.593-.595-.593h-.596zM2.97 13.063c-.182 0-.353.082-.465.222-.113.142-.155.326-.116.502l1.04 4.616c.074.33.42.597.77.597H7c.18 0 .352-.082.464-.223.112-.14.155-.325.115-.502L6.535 13.66c-.074-.33-.418-.598-.77-.598H2.97z"/></g>
  </symbol>
  <symbol id="suite-app-sync" viewBox="0 0 19 19">
    <path d="M18.6 0h-.2c-.2 0-.3.1-.4.2l-2.2 2.2C14 .8 11.8 0 9.5 0 4.5 0 .3 3.9 0 8.9c0 .2 0 .3.2.4.1.1.3.2.4.2h1.2c.3 0 .6-.2.6-.5.3-3.7 3.4-6.6 7.1-6.6 1.7 0 3.3.6 4.6 1.7l-2 2c-.2.2-.2.4-.1.6 0 .3.2.4.5.4h5.9c.3 0 .6-.3.6-.6V.6c0-.2-.1-.5-.4-.6M.4 19h.2c.2 0 .3-.1.4-.2l2.2-2.2C5 18.2 7.2 19 9.5 19c5 0 9.2-3.9 9.5-8.9 0-.2 0-.3-.2-.4-.1-.1-.3-.2-.4-.2h-1.2c-.3 0-.6.2-.6.5-.3 3.7-3.4 6.6-7.1 6.6-1.7 0-3.3-.6-4.6-1.7l2-2c.2-.2.2-.4.1-.6 0-.3-.2-.4-.5-.4H.6c-.3 0-.6.3-.6.6v5.9c0 .2.1.5.4.6"/>
  </symbol>
  <symbol id="suite-app-minutemen" viewBox="0 0 19 19">
    <path d="M6.4 5.2l-.9-.9c-.2-.2-.6-.2-.8 0L.2 8.8c-.1.1-.2.3-.2.4v.6c0 .1.1.3.2.4l4.5 4.5c.2.2.6.2.8 0l.8-.8c.2-.2.2-.6 0-.8L2.9 9.5 6.4 6c.2-.2.2-.6 0-.8M12.6 13.8l.8.8c.2.2.6.2.8 0l4.5-4.5c.1-.1.2-.2.2-.4v-.5c0-.1-.1-.3-.2-.4l-4.5-4.5c-.2-.2-.6-.2-.8 0l-.8.8c-.2.2-.2.6 0 .8l3.5 3.5-3.5 3.6c-.2.2-.2.6 0 .8M11.3 4.2h-1.2c-.3 0-.5.2-.6.4l-2.4 9.5c0 .2 0 .4.1.5.1.1.3.2.5.2h1.2c.3 0 .5-.2.6-.4l2.4-9.5c0-.2 0-.4-.1-.5-.2-.2-.3-.2-.5-.2"/>
  </symbol>
  <symbol id="suite-app-styleguide" viewBox="0 0 19 19">
    <path fill-rule="evenodd" clip-rule="evenodd" d="M.7 15.3L0 19l3.7-.7M18.7 15.5l-6.1-6.1 3.9-3.9-2.9-2.9-3.9 3.8L3.5.3C3.2 0 2.6 0 2.2.3l-2 2c-.3.3-.3.9 0 1.3l6.1 6.1-4.8 4.8 2.9 2.9 4.8-4.8 6.1 6.1c.3.3.9.3 1.3 0l2-2c.5-.3.5-.9.1-1.2zM.9 2.9l2-2 .7.7-1 1 .6.6 1-1 .7.7-.5.5.3.3.5-.5.6.6-1 1 .6.6 1-1L7 5l-.4.6.3.3.5-.5.7.6-1 1 .6.6 1-1 .4.4-2 2L.9 2.9zm15.2 15.2L9.9 12l2-2 .5.5-1 1 .6.6 1-1 .6.6-.5.5.3.3.6-.5.6.6-1 1 .6.6 1-1 .7.7-.5.5.3.3.5-.5.6.6-1 1 .6.6 1-1 .6.6-1.9 2.1zM17.3 4.6l1.4-1.4c.7-.7 0-1.5 0-1.5L17.2.2c-.7-.7-1.5 0-1.5 0l-1.3 1.4 2.9 3z"/>
  </symbol>


  <!-- Admin -->
  <symbol id="chevron" viewBox="0 0 11 6">
    <path d="M0 0v1.652l5.5 4.322L11 1.652V0L5.5 4.322" fill="#191B1E" fill-rule="evenodd"/>
  </symbol>

  <!-- <symbol id="add" viewBox="0 0 64 64"><path d="M32 64c-17.645 0-32-14.355-32-32s14.355-32 32-32 32 14.355 32 32-14.355 32-32 32zm0-60.484c-15.706 0-28.484 12.778-28.484 28.484s12.778 28.484 28.484 28.484 28.484-12.778 28.484-28.484-12.778-28.484-28.484-28.484zM14.989 30.11h34.022v3.78h-34.022zM30.11 14.989h3.78v34.022h-3.78z"/></symbol>
  <symbol id="delete" viewBox="0 0 52.095 63.714"><path d="M16.029 19.896h4.007v32.058h-4.007zM24.044 19.896h4.007v32.058h-4.007zM32.058 19.896h4.007v32.058h-4.007zM0 7.875h52.095v4.007h-52.095zM35.925 9.878h-3.726v-4.007c0-1.182-.963-2.144-2.145-2.144h-8.014c-1.182 0-2.145.962-2.145 2.144v4.007h-3.725v-4.007c0-3.237 2.634-5.871 5.87-5.871h8.015c3.236 0 5.87 2.634 5.87 5.871v4.007zM38.069 63.714h-24.044c-3.234 0-6.066-2.492-6.312-5.715l-3.7-48.032 3.996-.274 3.7 47.988c.088 1.144 1.17 2.034 2.317 2.034h24.044c1.147 0 2.229-.874 2.317-2.017l3.7-48.036 3.994.338-3.7 47.984c-.246 3.222-3.078 5.73-6.312 5.73z"/></symbol>
  <symbol id="edit" viewBox="0 0 64 64"><path d="M0 64l5.536-22.143 33.688-33.689 16.607 16.607-33.688 33.689-22.143 5.536zm9.349-19.984l-3.545 14.18 14.18-3.545 29.876-29.876-10.636-10.634-29.875 29.875zM18.455 57.208c-1.435-5.758-5.905-10.228-11.663-11.663l1.022-4.097c7.277 1.813 12.925 7.461 14.738 14.738l-4.097 1.022zM44.541 16.471l2.986 2.986-29.512 29.512-2.986-2.986zM2.902 61.098l6.587-1.647c-.607-2.431-2.509-4.333-4.94-4.94l-1.647 6.587zM57.386 23.221l-16.607-16.607 6.615-6.614 1.034.137c8.019 1.069 14.366 7.416 15.434 15.434l.138 1.035-6.614 6.615zm-10.635-16.607l10.635 10.635 2.121-2.119c-1.117-5.327-5.31-9.52-10.637-10.636l-2.119 2.12z"/></symbol>
  <symbol id="down" viewBox="0 0 64 64"><path d="M32 0c17.645 0 32 14.355 32 32s-14.355 32-32 32-32-14.355-32-32 14.355-32 32-32zm0 60.484c15.706 0 28.484-12.778 28.484-28.484s-12.778-28.484-28.484-28.484-28.484 12.778-28.484 28.484 12.778 28.484 28.484 28.484zM16.232 28.867l15.768 15.768 15.768-15.768 2.486 2.486-18.254 18.254-18.254-18.254zM30.11 14.989h3.78v32.132h-3.78z"/></symbol>
  <symbol id="info" viewBox="0 0 64 64"><path d="M32 64c-17.645 0-32-14.355-32-32s14.355-32 32-32 32 14.355 32 32-14.355 32-32 32zm0-60.484c-15.706 0-28.484 12.778-28.484 28.484s12.778 28.484 28.484 28.484 28.484-12.778 28.484-28.484-12.778-28.484-28.484-28.484z"/><circle cx="32" cy="16.953" r="2.56"/><path d="M29.44 27.251h5.12v21.76h-5.12z"/></symbol>
  <symbol id="link" viewBox="0 0 64.156 64.021"><path d="M27.519 64.021c-1.95 0-3.78-.756-5.152-2.128l-20.237-20.237c-2.84-2.84-2.84-7.463 0-10.303l27.067-27.106c2.361-2.36 6.824-4.247 10.161-4.247h17.302c4.018 0 7.495 3.345 7.495 7.363v17.302c0 3.337-1.953 7.801-4.314 10.161l-27.12 27.067c-1.37 1.372-3.252 2.128-5.202 2.128zm11.839-59.021c-2.166 0-5.409 1.158-6.941 2.69l-27.067 26.975c-1.065 1.065-1.065 2.753 0 3.818l20.237 20.214c1.025 1.023 2.839 1.011 3.864-.012l26.949-27.073c1.532-1.532 2.756-4.782 2.756-6.947v-17.302c0-1.506-.989-2.363-2.496-2.363h-17.302zM45.733 27.239c-4.934 0-8.948-4.014-8.948-8.948s4.014-8.948 8.948-8.948 8.948 4.014 8.948 8.948-4.015 8.948-8.948 8.948zm0-13.661c-2.599 0-4.712 2.113-4.712 4.712s2.113 4.712 4.712 4.712 4.712-2.113 4.712-4.712-2.113-4.712-4.712-4.712z"/></symbol>

  <symbol id="schedule" viewBox="0 0 63.998 64"><path d="M31.999 64c-17.644 0-31.999-14.355-31.999-32s14.355-32 31.999-32 31.999 14.355 31.999 32-14.355 32-31.999 32zm0-60.484c-15.706 0-28.485 12.778-28.485 28.484s12.779 28.484 28.485 28.484 28.485-12.778 28.485-28.484-12.779-28.484-28.485-28.484zM42.515 48.457l-11.383-11.894v-21.563h2v19.998l11.421 10.787z"/></symbol>
  <symbol id="search" viewBox="0 0 64 64"><path d="M26.598 52.31c-14.42.244-26.351-11.291-26.594-25.712s11.291-26.351 25.712-26.594 26.351 11.291 26.594 25.712c.244 14.42-11.291 26.351-25.712 26.594zm-.819-48.543c-12.346.208-22.221 10.422-22.012 22.768.208 12.346 10.422 22.221 22.768 22.012s22.221-10.422 22.012-22.768-10.422-22.221-22.768-22.012zM45.794 42.933l18.206 18.206-2.86 2.86-18.206-18.206z"/></symbol>
  <symbol id="send" viewBox="0 0 64.133 64"><path d="M60.216.79l3.005 3.007-34.3 34.271-3.005-3.007zM64.133 23h-5v-18h-18v-5h23zM52.571 64h-45.714c-3.781 0-6.857-3.076-6.857-6.857v-45.715c0-3.781 3.076-6.857 6.857-6.857h25.143v4.571h-25.143c-1.261 0-2.286 1.026-2.286 2.286v45.714c0 1.26 1.025 2.286 2.286 2.286h45.714c1.261 0 2.286-1.026 2.286-2.286v-25.142h4.571v25.143c.001 3.781-3.075 6.857-6.857 6.857z"/></symbol>
  <symbol id="settings" viewBox="0 0 64 64.002"><path d="M32 47.097c-8.324 0-15.095-6.773-15.095-15.096s6.772-15.096 15.095-15.096 15.095 6.773 15.095 15.096-6.771 15.096-15.095 15.096zm0-27.047c-6.59 0-11.952 5.361-11.952 11.951s5.362 11.951 11.952 11.951 11.952-5.361 11.952-11.951-5.362-11.951-11.952-11.951zM36.514 64.002h-9.027l-2.605-7.81c-1.722-.506-3.383-1.194-4.956-2.052l-7.361 3.681-6.386-6.384 3.683-7.362c-.858-1.57-1.545-3.231-2.052-4.956l-7.81-2.604v-9.028l7.81-2.603c.507-1.725 1.194-3.386 2.052-4.956l-3.683-7.362 6.386-6.385 7.361 3.681c1.573-.858 3.234-1.546 4.956-2.052l2.605-7.81h9.027l2.605 7.81c1.722.506 3.383 1.194 4.956 2.052l7.361-3.681 6.386 6.385-3.683 7.362c.858 1.57 1.545 3.231 2.052 4.956l7.809 2.603v9.028l-7.81 2.603c-.507 1.725-1.194 3.386-2.052 4.956l3.683 7.362-6.386 6.384-7.361-3.681c-1.573.858-3.234 1.546-4.956 2.052l-2.604 7.811zm-6.762-3.145h4.497l2.423-7.269.829-.213c2.014-.517 3.941-1.314 5.725-2.37l.738-.437 6.851 3.426 3.18-3.18-3.427-6.852.437-.738c1.053-1.78 1.851-3.706 2.371-5.725l.213-.83 7.269-2.423v-4.495l-7.269-2.423-.213-.83c-.52-2.019-1.317-3.946-2.371-5.725l-.437-.738 3.427-6.852-3.18-3.18-6.851 3.426-.738-.437c-1.785-1.056-3.711-1.853-5.725-2.37l-.829-.213-2.423-7.269h-4.497l-2.423 7.269-.829.217c-2.014.517-3.941 1.314-5.725 2.37l-.738.437-6.851-3.426-3.18 3.18 3.427 6.852-.437.738c-1.053 1.78-1.851 3.706-2.371 5.725l-.213.83-7.269 2.423v4.495l7.269 2.423.213.83c.52 2.019 1.317 3.946 2.371 5.725l.437.738-3.427 6.852 3.18 3.18 6.851-3.426.738.437c1.785 1.056 3.711 1.853 5.725 2.37l.829.213 2.423 7.265z"/></symbol>
  <symbol id="tag" viewBox="0 0 64.156 64.021"><path d="M27.519 64.021c-1.95 0-3.78-.756-5.152-2.128l-20.237-20.237c-2.84-2.84-2.84-7.463 0-10.303l27.067-27.106c2.361-2.36 6.824-4.247 10.161-4.247h17.302c4.018 0 7.495 3.345 7.495 7.363v17.302c0 3.337-1.953 7.801-4.314 10.161l-27.12 27.067c-1.37 1.372-3.252 2.128-5.202 2.128zm11.839-59.021c-2.166 0-5.409 1.158-6.941 2.69l-27.067 26.975c-1.065 1.065-1.065 2.753 0 3.818l20.237 20.214c1.025 1.023 2.839 1.011 3.864-.012l26.949-27.073c1.532-1.532 2.756-4.782 2.756-6.947v-17.302c0-1.506-.989-2.363-2.496-2.363h-17.302zM45.733 27.239c-4.934 0-8.948-4.014-8.948-8.948s4.014-8.948 8.948-8.948 8.948 4.014 8.948 8.948-4.015 8.948-8.948 8.948zm0-13.661c-2.599 0-4.712 2.113-4.712 4.712s2.113 4.712 4.712 4.712 4.712-2.113 4.712-4.712-2.113-4.712-4.712-4.712z"/></symbol>
  <symbol id="target" viewBox="0 0 64 64"><path d="M46.655 30.071h3.985c-.967-8.548-7.776-15.344-16.33-16.295v3.991h-4.115v-3.992c-8.554.951-15.361 7.747-16.331 16.295h3.982v4.115h-3.995c.935 8.589 7.76 15.426 16.343 16.38v-3.991h4.115v3.991c8.582-.955 15.408-7.792 16.341-16.379h-3.996v-4.115zm-14.402 8.229c-3.409 0-6.173-2.764-6.173-6.173 0-3.408 2.764-6.172 6.173-6.172 3.408 0 6.172 2.764 6.172 6.172 0 3.409-2.764 6.173-6.172 6.173zM32 0c-17.672 0-32 14.328-32 32s14.328 32 32 32 32-14.328 32-32-14.328-32-32-32zm22.788 34.185c-.963 10.861-9.623 19.535-20.478 20.519v4.216h-4.115v-4.216c-10.854-.981-19.516-9.66-20.479-20.519h-4.213v-4.115h4.219c1-10.82 9.648-19.453 20.474-20.434v-4.213h4.115v4.213c10.825.981 19.471 9.614 20.473 20.434h4.217v4.115h-4.213z"/></symbol>
  <symbol id="time" viewBox="0 0 64 64"><path d="M32 11.428c-11.361 0-20.572 9.21-20.572 20.571 0 11.363 9.21 20.574 20.572 20.574 11.361 0 20.571-9.211 20.571-20.574 0-11.361-9.21-20.571-20.571-20.571zm10.977 23.242h-10.977c-1.443 0-2.67-1.227-2.67-2.671v-15.103c0-1.443 1.227-2.612 2.67-2.612 1.443 0 2.67 1.169 2.67 2.612v12.434h8.308c1.442 0 2.613 1.227 2.613 2.669-.001 1.444-1.171 2.671-2.614 2.671zm-10.977-34.67c-17.644 0-32 14.355-32 32.001 0 17.644 14.356 31.999 32 31.999s32-14.355 32-31.999c0-17.646-14.356-32.001-32-32.001zm0 56.707c-13.623 0-24.708-11.083-24.708-24.706 0-13.625 11.085-24.709 24.708-24.709 13.623 0 24.707 11.084 24.707 24.708 0 13.624-11.084 24.707-24.707 24.707z"/></symbol>
  <symbol id="tip" viewBox="0 0 40 64"><path d="M40 20c0 10.875-6.555 12.141-7.785 24 0 1.105-.895 2-2 2h-20.43c-1.106 0-2-.895-2-2h-.004c-1.226-11.859-7.781-13.125-7.781-24 0-11.047 8.953-20 20-20s20 8.953 20 20zm-10 28h-20c-1.105 0-2 .895-2 2s.895 2 2 2h20c1.105 0 2-.895 2-2s-.895-2-2-2zm0 6h-20c-1.105 0-2 .895-2 2s.895 2 2 2h20c1.105 0 2-.895 2-2s-.895-2-2-2zm-14 10h8c2.211 0 4-1.789 4-4h-16c0 2.211 1.789 4 4 4z"/></symbol>
  <symbol id="toggle" viewBox="0 0 64 64"><g><polygon points="32,40.2 15.4,23.8 48.6,23.8"/></g></symbol>
  <symbol id="up" x="32" y="32" viewBox="0 0 64 64"><path d="M32 64c-17.645 0-32-14.355-32-32s14.355-32 32-32 32 14.355 32 32-14.355 32-32 32zm0-60.484c-15.706 0-28.484 12.778-28.484 28.484s12.778 28.484 28.484 28.484 28.484-12.778 28.484-28.484-12.778-28.484-28.484-28.484zM47.768 35.133l-15.768-15.768-15.768 15.768-2.486-2.486 18.254-18.254 18.254 18.254zM30.11 16.879h3.78v32.132h-3.78z"/></symbol>
  <symbol id="upload" viewBox="0 0 52.445 64"><path d="M41.181 33.856l-14.959-14.959-14.958 14.959 2.037 2.037 11.373-11.372v39.479h3.097v-39.479l11.372 11.372z"/><path fill-rule="evenodd" clip-rule="evenodd" d="M45.889 0h-39.334c-3.596 0-6.555 3.226-6.555 6.826v34.907c0 3.599 2.916 6.517 6.513 6.517h10.27v-3.258h-10.27c-1.798 0-3.256-1.459-3.256-3.258v-34.908c0-1.8 1.501-3.548 3.299-3.548h39.334c1.799 0 3.278 1.478 3.278 3.278v35.138c0 1.8-1.779 3.297-3.578 3.297h-9.927v3.258h9.927c3.597 0 6.855-2.956 6.855-6.555v-35.138c0-3.599-2.959-6.556-6.556-6.556z"/></symbol>
  <symbol id="url" viewBox="0 0 64 64"><path d="M54.627 9.373c6.045 6.044 9.373 14.08 9.373 22.627s-3.329 16.583-9.373 22.627c-6.044 6.044-14.08 9.373-22.627 9.373s-16.583-3.329-22.627-9.373c-6.044-6.044-9.373-14.079-9.373-22.627s3.328-16.583 9.373-22.627c6.044-6.044 14.08-9.373 22.627-9.373s16.583 3.329 22.627 9.373zm-2.828 42.426c3.941-3.941 6.562-8.85 7.642-14.191-.842 1.24-1.648 1.7-2.146-1.075-.514-4.524-4.669-1.634-7.282-3.241-2.75 1.854-8.932-3.604-7.881 2.552 1.621 2.776 8.75-3.716 5.197 2.159-2.267 4.101-8.29 13.183-7.507 17.891.099 6.859-7.008 1.43-9.457-.845-1.647-4.557-.561-12.523-4.869-14.755-4.675-.203-8.688-.628-10.5-5.854-1.09-3.739 1.16-9.306 5.167-10.165 5.866-3.685 7.961 4.316 13.462 4.465 1.708-1.787 6.364-2.355 6.75-4.359-3.609-.637 4.579-3.035-.345-4.399-2.717.32-4.467 2.817-3.023 4.935-5.265 1.228-5.433-7.619-10.494-4.829-.129 4.412-8.264 1.43-2.815.536 1.872-.818-3.054-3.188-.393-2.758 1.307-.071 5.708-1.613 4.517-2.65 2.451-1.521 4.51 3.643 6.909-.118 1.732-2.892-.726-3.426-2.897-1.96-1.224-1.37 2.161-4.33 5.146-5.609.995-.426 1.945-.658 2.672-.593 1.504 1.737 4.284 2.038 4.43-.209-3.725-1.785-7.831-2.727-12.082-2.727-6.101 0-11.904 1.939-16.707 5.524 1.291.591 2.023 1.327.78 2.268-.966 2.878-4.886 6.742-8.326 6.195-1.787 3.082-2.964 6.476-3.467 10.034 2.882.953 3.546 2.841 2.927 3.472-1.469 1.28-2.371 3.096-2.836 5.083.938 5.74 3.636 11.03 7.829 15.223 5.29 5.289 12.321 8.201 19.8 8.201 7.479 0 14.511-2.912 19.799-8.201z"/></symbol>
  <symbol id="prev" viewbox="0 0 16 63.2"><polygon points="0,32 16,16 16,48   "/></symbol>
  <symbol id="next" viewbox="0 0 16 63.2"><polygon points="16,32 0,48 0,16"/></symbol>
  <symbol id="checkmark" viewBox="0 0 64 64"><path d="m63.1 11.3c-1.3-1.3-3.3-1.3-4.6 0l-34.6 34.5-18.4-18.4c-1.3-1.3-3.3-1.3-4.6 0s-1.3 3.3 0 4.6l20.7 20.7c1.3 1.3 3.3 1.3 4.6 0l36.8-36.8c1.3-1.3 1.3-3.3 0.1-4.6z" fill="000000"/></symbol>
  <symbol id="remove" viewBox="0 0 9 9"><path d="M9 7.2l-2.7-2.7 2.7-2.7-1.8-1.8-2.7 2.7-2.7-2.7-1.8 1.8 2.7 2.7-2.7 2.7 1.8 1.8 2.7-2.7 2.7 2.7 1.8-1.8z"/></symbol>
  <symbol id="more-options" viewBox="0 0 21 5"><circle cx="2.5" cy="2.5" r="2.5"/><circle cx="18.5" cy="2.5" r="2.5"/><circle cx="10.5" cy="2.5" r="2.5"/></symbol> -->

<!--Ads 
  <symbol id="ad-display" viewBox="0 0 64 64"><path d="M0,0v64l3-4l5,4l3-4l5,4l3-4l5,4l3-4l5,4l3-4l5,4l3-4l5,4l3-4l5,4l3-4l5,4V0H0z M52,45.3H12V12.7h40V45.3z" /><path d="M29.3,24.7l4.2,7.7l4.3-4.3l6,8.7h4.7V16H15.4v20.9L25.4,23L29.3,24.7z M41.4,18.6c1.4,0,2.6,1.2,2.6,2.6 s-1.2,2.6-2.6,2.6c-1.4,0-2.6-1.2-2.6-2.6S40,18.6,41.4,18.6z"/></symbol>
  <symbol id="ad-native" viewBox="0 0 64 64"><polygon points="25.1,15.5 25,15.5 22.7,22 27.3,22 	"/><path d="M39.3,26.6c0.2,0.1,0.4,0.2,0.7,0.3c0.3,0,0.5,0.1,0.8,0.1c0.7,0,1.2-0.1,1.6-0.3c0.4-0.2,0.7-0.5,0.8-0.8 c0.2-0.3,0.3-0.7,0.3-1c0-0.3,0.1-0.6,0.1-0.8v-1.3c-0.1,0.1-0.3,0.2-0.6,0.3c-0.2,0.1-0.5,0.1-0.7,0.2c-0.3,0-0.5,0.1-0.8,0.1 c-0.3,0-0.6,0.1-0.8,0.1c-0.3,0-0.5,0.1-0.8,0.2c-0.3,0.1-0.5,0.2-0.7,0.3c-0.2,0.1-0.3,0.3-0.5,0.5c-0.1,0.2-0.2,0.5-0.2,0.8 c0,0.3,0.1,0.6,0.2,0.8C38.9,26.3,39.1,26.4,39.3,26.6z"/><path d="M0,0v64l2.9-2.9L8,64l2.9-2.9L16,64l2.9-2.9L24,64l2.9-2.9L32,64l2.9-2.9L40,64l2.9-2.9L48,64l2.9-2.9 L56,64l2.9-2.9L64,64V0H0z M35.5,23.6c0.3-0.5,0.6-0.8,1-1.1c0.4-0.3,0.9-0.5,1.4-0.6c0.5-0.1,1-0.3,1.6-0.3 c0.5-0.1,1.1-0.1,1.6-0.2c0.5,0,1-0.1,1.4-0.2c0.4-0.1,0.7-0.2,0.9-0.4c0.2-0.2,0.3-0.5,0.3-0.8c0-0.4-0.1-0.7-0.2-0.9 c-0.1-0.2-0.3-0.4-0.5-0.5c-0.2-0.1-0.4-0.2-0.7-0.2c-0.3,0-0.6-0.1-0.9-0.1c-0.7,0-1.2,0.1-1.6,0.4c-0.4,0.3-0.6,0.8-0.7,1.5h-3.5 c0-0.8,0.3-1.5,0.6-2.1c0.4-0.5,0.8-1,1.4-1.3c0.6-0.3,1.2-0.6,1.9-0.7c0.7-0.1,1.4-0.2,2.1-0.2c0.6,0,1.3,0,2,0.1 c0.7,0.1,1.3,0.3,1.8,0.5c0.5,0.3,1,0.6,1.3,1.1c0.3,0.5,0.5,1.1,0.5,1.9v6.7c0,0.6,0,1.1,0.1,1.7c0.1,0.5,0.2,0.9,0.3,1.2h-3.6 c-0.1-0.2-0.1-0.4-0.2-0.6c0-0.2-0.1-0.4-0.1-0.6c-0.6,0.6-1.2,1-2,1.2c-0.8,0.2-1.5,0.3-2.3,0.3c-0.6,0-1.2-0.1-1.7-0.2 c-0.5-0.1-1-0.4-1.4-0.7c-0.4-0.3-0.7-0.7-0.9-1.2c-0.2-0.5-0.3-1.1-0.3-1.7C35.1,24.7,35.2,24.1,35.5,23.6z M23.1,11.1h4l6.6,17.8 h-4.1l-1.3-4h-6.6l-1.4,4h-3.9L23.1,11.1z M50.7,47.1H13.3v-4h37.5V47.1z M50.7,38H13.3v-4h37.5V38z"/></symbol>
  <symbol id="ad-video" viewBox="0 0 64 64"><path d="M0,0v64l3-4l5,4l3-4l5,4l3-4l5,4l3-4l5,4l3-4l5,4l3-4l5,4l3-4l5,4l3-4l5,4V0H0z M32,46.3 c-9.9,0-18-8.1-18-18c0-9.9,8.1-18,18-18s18,8.1,18,18C50,38.2,41.9,46.3,32,46.3z"/><polygon points="26.9,28.3 26.9,40 41.5,28.3 26.9,16.6 	"/></symbol>

  <symbol id="date" viewBox="0 0 60.004 64"><g fill-rule="evenodd" clip-rule="evenodd"><path d="M9.002 44.001h6c.553 0 1-.447 1-1v-6c0-.553-.447-1-1-1h-6c-.553 0-1 .447-1 1v6c0 .552.447 1 1 1zM27.001 36.001h-6c-.553 0-1 .447-1 1v6c0 .553.447 1 1 1h6c.553 0 1-.447 1-1v-6c0-.553-.447-1-1-1zM39.001 36.001h-6c-.553 0-1 .447-1 1v6c0 .553.447 1 1 1h6c.553 0 1-.447 1-1v-6c0-.553-.447-1-1-1zM51 36.001h-6c-.553 0-1 .447-1 1v6c0 .553.447 1 1 1h6c.553 0 1-.447 1-1v-6c0-.553-.447-1-1-1zM9.002 56h6c.553 0 1-.447 1-1v-6c0-.553-.447-1-1-1h-6c-.553 0-1 .447-1 1v6c0 .553.447 1 1 1zM27.001 48h-6c-.553 0-1 .447-1 1v6c0 .553.447 1 1 1h6c.553 0 1-.447 1-1v-6c0-.552-.447-1-1-1zM39.001 48h-6c-.553 0-1 .447-1 1v6c0 .553.447 1 1 1h6c.553 0 1-.447 1-1v-6c0-.552-.447-1-1-1zM51 48h-6c-.553 0-1 .447-1 1v6c0 .553.447 1 1 1h6c.553 0 1-.447 1-1v-6c0-.552-.447-1-1-1zM9.002 32.001h41.998c.553 0 1-.447 1-1v-6c0-.553-.447-1-1-1h-41.998c-.553 0-1 .447-1 1v6c0 .553.447 1 1 1zM60.002 12c0-2.209-1.791-4-4-4h-4.004v-3.998c0-2.209-1.791-4-4-4h-4c-2.209 0-4 1.791-4 4v3.998h-19.999v-4c0-2.209-1.791-4-4-4h-4c-2.208 0-3.999 1.791-3.999 4v4h-3.998c-2.209 0-4 1.791-4 4l-.002 48c0 2.209 1.791 4 4 4h52c2.209 0 4.004-1.793 4.004-4.002l-.002-47.998zm-15.997-7c0-.553.447-1 1-1h2c.553 0 1 .447 1 1v6c0 .553-.447 1-1 1h-2c-.553 0-1-.447-1-1v-6zm-32 0c0-.553.447-1 1-1h2c.553 0 1 .447 1 1v6c0 .553-.447 1-1 1h-2c-.553 0-1-.447-1-1v-6zm43.995 55h-51.998v-39.999h51.998v39.999z"/></g></symbol>
  <symbol id="filter-off" viewBox="0 0 68.206 64.04"><g stroke="#9B9A9A" stroke-width="4.206" stroke-miterlimit="22.926" fill="none"><path d="M12.57 21.567l-8.607-6.68c-1.262-.981-1.86-2.413-1.86-4.013v-4.355c0-2.432 1.984-4.416 4.416-4.416h55.165c2.432 0 4.418 1.984 4.418 4.416v4.355c0 1.596-.568 3.078-1.862 4.013l-22.815 16.463-1.971 27.125c-.145 2.005-1.948 3.462-3.957 3.462h-2.787c-2.011 0-3.818-1.453-3.959-3.462l-.799-11.312"/><path stroke-linecap="round" stroke-linejoin="round" d="M17.503 27.427v22.873M6.066 38.863h22.873"/></g></symbol>
  <symbol id="filter-on" viewBox="0 0 68.206 64.04"><path stroke="#9B9A9A" stroke-width="4.206" stroke-miterlimit="22.926" d="M35.497 61.937h-2.787c-2.011 0-3.814-1.453-3.959-3.462l-1.972-27.125-22.816-16.463c-1.296-.935-1.86-2.413-1.86-4.013v-4.355c0-2.432 1.986-4.416 4.416-4.416h55.165c2.432 0 4.418 1.984 4.418 4.416v4.355c0 1.596-.566 3.078-1.862 4.013l-22.815 16.463-1.969 27.125c-.145 2.005-1.946 3.462-3.959 3.462z" fill="none"/></symbol>
  <symbol id="impersonate" viewBox="0 0 64.001 41.319"><path d="M32 41.319c-21.629 0-31.409-19.062-31.815-19.873-.247-.495-.247-1.078 0-1.573.407-.811 10.186-19.873 31.815-19.873s31.409 19.062 31.815 19.873c.247.495.247 1.078 0 1.573-.406.811-10.185 19.873-31.815 19.873zm-28.23-20.66c2.042 3.465 11.184 17.143 28.23 17.143s26.189-13.678 28.23-17.143c-2.041-3.464-11.183-17.143-28.23-17.143s-26.188 13.679-28.23 17.143zM32 37.538c-9.307 0-16.878-7.572-16.878-16.879s7.572-16.879 16.878-16.879 16.878 7.572 16.878 16.879-7.571 16.879-16.878 16.879zm0-30.241c-7.369 0-13.364 5.994-13.364 13.363s5.996 13.362 13.364 13.362 13.364-5.994 13.364-13.363-5.995-13.362-13.364-13.362zM32 29.978c-5.139 0-9.318-4.181-9.318-9.319 0-.971.786-1.758 1.757-1.758.971 0 1.757.787 1.757 1.758 0 3.2 2.604 5.802 5.803 5.802s5.803-2.603 5.803-5.802-2.603-5.802-5.802-5.802c-.971 0-1.757-.787-1.757-1.758s.786-1.758 1.757-1.758c5.139 0 9.318 4.181 9.318 9.319s-4.179 9.318-9.318 9.318z"/></symbol>
  <symbol id="menu" viewBox="0 0 64.001 48.175"><g fill-rule="evenodd" clip-rule="evenodd"><path d="M0 0h64.001v9.283h-64.001zM0 19.446h64.001v9.283h-64.001zM0 38.892h64.001v9.283h-64.001z"/></g></symbol>
  <symbol id="minus" viewBox="0 0 64 64"><path d="M32 64c-17.645 0-32-14.355-32-32s14.355-32 32-32 32 14.355 32 32-14.355 32-32 32zm0-60.484c-15.706 0-28.484 12.778-28.484 28.484s12.778 28.484 28.484 28.484 28.484-12.778 28.484-28.484-12.778-28.484-28.484-28.484zM14.989 30.11h34.022v3.78h-34.022z"/></symbol>
  <symbol id="notes" viewBox="0 0 64 64"><g fill-rule="evenodd" clip-rule="evenodd"><path d="M55.634 64h-47.686c-4.39 0-7.948-3.56-7.948-7.952v-47.718c0-4.393 3.61-8.33 8-8.33h48c4.389 0 8 3.608 8 8v48c0 4.392-3.977 8-8.366 8zm4.366-56c0-2.196-1.805-4-4-4h-48c-2.195 0-4.026 2.133-4.026 4.33v47.718c0 2.196 1.779 3.976 3.974 3.976h47.686c2.194 0 4.366-1.827 4.366-4.024v-48zM12.736 16.32h38.613v4.8h-38.613zM12.736 29.12h38.613v4.8h-38.613zM12.736 41.92h38.613v4.8h-38.613z"/></g></symbol>
  <symbol id="notice" viewBox="0 0 64 64"><path d="M32 0c-17.672 0-32 14.328-32 32s14.328 32 32 32 32-14.328 32-32-14.328-32-32-32zm4.569 51.74h-9.137v-9.024h9.137v9.024zm.451-38.352l-1.36 24.929h-7.402l-1.278-24.929v-1.128h10.04v1.128z"/></symbol>
  <symbol id="overview" viewBox="0 0 63.999 58.063"><path d="M1281.34 768.527c17.645 0 32 14.355 32 32s-14.355 32-32 32-32-14.355-32-32 14.355-32 32-32zm0 60.483c15.706 0 28.484-12.778 28.484-28.484s-12.778-28.484-28.484-28.484-28.484 12.778-28.484 28.484 12.778 28.484 28.484 28.484zM1265.573 797.393l15.767 15.768 15.768-15.768 2.487 2.487-18.255 18.254-18.254-18.254zM1279.45 783.516h3.78v32.132h-3.78z"/><path fill="#010101" d="M-664.133-493.491l-256-198.715-256 198.715v-81.02l256-198.712 256 198.714v81.018zm-64-7.224v192h-128v-128h-128v128h-128v-192l192-144 192 144z"/><path fill="#9B9A9A" d="M63.999 34.966l-31.999-24.839-32 24.839v-10.127l32-24.839 32 24.839v10.127zm-7.999-.903v24h-16v-16h-16v16h-16v-24l24-18 24 18z"/></symbol>
  <symbol id="plus" viewBox="0 0 64 64"><path d="M32 64c-17.645 0-32-14.355-32-32s14.355-32 32-32 32 14.355 32 32-14.355 32-32 32zm0-60.484c-15.706 0-28.484 12.778-28.484 28.484s12.778 28.484 28.484 28.484 28.484-12.778 28.484-28.484-12.778-28.484-28.484-28.484zM14.989 30.11h34.022v3.78h-34.022zM30.11 14.989h3.78v34.022h-3.78z"/></symbol>
  <symbol id="reassign" viewBox="0 0 81.834 50"><path d="M69.353 46.874h-4.375v-39.373c0-1.206-.982-2.187-2.187-2.187h-37.186v-4.375h37.185c3.619 0 6.562 2.944 6.562 6.562v39.373zM67.165 50l-14.668-17.113 3.088-2.649 11.58 13.51 11.58-13.51 3.089 2.649zM56.228 49.061h-37.185c-3.619 0-6.562-2.944-6.562-6.562v-39.373h4.375v39.373c0 1.206.982 2.187 2.187 2.187h37.185v4.375zM26.248 19.762l-11.579-13.51-11.58 13.51-3.089-2.649 14.669-17.113 14.668 17.113z"/></symbol>
-->
</svg>