<svg xmlns="http://www.w3.org/2000/svg">
  <title>Revere</title>
  <symbol id="desktop" width="169" height="29" viewBox="0 0 169 29">
    <path d="M37 19.7c-.8-2.2-1.6-2.8-4-2.8v9.4l1.8 1.2v1.2H27v-1.2l1.8-1.2V2.2l-1.5-1.1V0h8.3c4.4 0 8 1.7 8 6.7v3.7c0 3.5-2 5.5-4.6 6 1.2.7 1.8 1.4 2.2 2.7l1.9 5.3c.4 1.1 1.1 2.7 2.5 2.4v1.6c-.8.4-2.1.5-3 .5-2.6 0-2.8-1.8-3.7-4L37 19.7zM32.9 2.5v12h2.6c2.7 0 3.8-1.5 3.8-4.1V6.7c0-2.6-.9-4.1-3.8-4.1h-2.6zm15.2 26.3v-1.2l1.8-1.2V2.2l-1.6-1.1V0h14.6v6.4h-2.1l-1.1-4h-5.6v10.8H58l1.1-2.3h1.2v6.9h-1.2L58 15.6h-3.9v9.1c0 .7-.2 1-.9 1.3v.2h7l1.4-3.9h1.8v6.4c-5 .1-10.2.1-15.3.1zm28.2-4.9l5-21.9-1.6-.7V0h5.6v1.3l-1.3.8L77.6 29h-4.2L66.7 2.2l-1.5-.9V0h7.5v1.1l-1.6 1.1 5.2 21.7zm11.1 4.9v-1.2l1.8-1.2V2.2l-1.6-1.1V0h14.6v6.4h-2.1l-1.1-4h-5.6v10.8h3.9l1.1-2.3h1.2v6.9h-1.2l-1.1-2.2h-3.9v9.1c0 .7-.2 1-.9 1.3v.2h7l1.4-3.9h1.8v6.4c-5 .1-10.2.1-15.3.1zm28.8-9.1c-.8-2.2-1.6-2.8-4-2.8v9.4l1.8 1.2v1.2h-7.8v-1.2l1.8-1.2V2.2l-1.5-1.1V0h8.3c4.4 0 8 1.7 8 6.7v3.7c0 3.5-2 5.5-4.6 6 1.2.7 1.8 1.4 2.2 2.7l1.9 5.3c.4 1.1 1.1 2.7 2.5 2.4v1.6c-.8.4-2.1.5-3 .5-2.6 0-2.8-1.8-3.7-4l-1.9-5.2zm-4-17.2v12h2.6c2.7 0 3.8-1.5 3.8-4.1V6.7c0-2.6-.9-4.1-3.8-4.1h-2.6zm15.1 26.3v-1.2l1.8-1.2V2.2l-1.6-1.1V0h14.6v6.4H140l-1.1-4h-5.6v10.8h3.9l1.1-2.3h1.2v6.9h-1.2l-1.1-2.2h-3.9v9.1c0 .7-.2 1-.9 1.3v.2h7l1.4-3.9h1.8v6.4c-5 .1-10.1.1-15.3.1zM21.4 11.9c-1 .8-3.2 2.4-6.4 4.9.3.9.7 2.1 1.2 3.9.5 1.7.9 3 1.2 3.8l-6.6-4.6s-2.2 1.5-6.6 4.6c1.5-5 2.3-7.5 2.3-7.6 0 0-2.1-1.6-6.4-4.9l7.3-.2h.7c.5-1.5 1.4-4.1 2.6-7.6 1.1 3 2 5.5 2.7 7.6.1 0 .3.1.5.1 1.8-.1 4.3-.1 7.5 0zm147.6 0c-1 .8-3.2 2.4-6.4 4.9.3.9.7 2.1 1.2 3.9.5 1.7.9 3 1.2 3.8l-6.6-4.6s-2.2 1.5-6.6 4.6c1.5-5 2.3-7.5 2.3-7.6 0 0-2.1-1.6-6.4-4.9l7.3-.2h.7c.5-1.5 1.4-4.1 2.6-7.6 1.1 3 2 5.5 2.7 7.6.1 0 .3.1.5.1 1.8-.1 4.3-.1 7.5 0z"/>
  </symbol>
  <symbol id="tablet" width="39" height="29" viewBox="0 0 39 29">
    <path fill-rule="evenodd" d="M37.536 7.443l.07.05.08.056-.08-.06-.07-.05zm-.045-.03l-.07-.057.08.055v.01zm-.12-.088l-.18-.132.19.13v.002zm-.61-1.253c.04.02.07.043.11.067l-.05.07-.03-.08-.01-.04-.01-.03zm.28.463c-.01-.01-.03-.007-.05.01l-.15.212.16-.217c-.05.01-.1 0-.14-.04-.02-.02-.04-.05-.05-.08l-.23.32-.14.2.54-.75c.01-.017.01-.04-.01-.05l-.01-.01v-.01c-.06-.047-.12-.09-.19-.12v-.02c-.07-.157-.2-.27-.35-.39-.08-.07-.16-.13-.25-.18-.06-.038-.12-.06-.18-.08 0-.008 0-.01-.01-.018-.01-.008-.02-.007-.03.003v.003c-.03-.005-.05-.01-.07-.01-.05-.004-.09 0-.13.01-.02.004-.04.012-.06.02l.05-.07-.16-.088-.04.054-.09.02L35 4.96l.154-.22-.186.06.004-.01-.008-.008c-.008-.02-.008-.043 0-.065.01-.026.035-.04.06-.05.02-.007.043-.004.064.002.02 0 .04.01.06.02l.45.24.768.42c.276.15.55.29.817.45l.09.06c.023.02.05.05.063.08.017.04.02.09.015.13 0 .04-.02.08-.03.12-.05.12-.12.23-.21.33l-.04-.03zm-.47.59l.18-.246.02-.03-.19.27zm-.99-1.064c-.19.11-.37.25-.51.42-.01-.03-.02-.05-.02-.08s.01-.06.02-.09l.58-.79c.03-.02.06-.04.09-.05h.09c-.12.19-.2.4-.23.62zm.95-.13c-.23-.06-.51-.04-.77.06l-.13.06c.04-.21.12-.41.24-.58.07.02.14.04.22.09.08.05.15.1.23.16.1.08.19.16.25.25l-.02-.01zM35.75 7l.005.005c-.1-.035-.198-.09-.296-.152-.08-.048-.16-.1-.23-.158-.07-.055-.12-.114-.15-.176.13-.17.29-.31.48-.41-.01.05-.01.09-.01.14-.01.27.06.54.2.74zm.704-.61c-.014 0-.027 0-.04.004-.074.018-.14.063-.184.124-.045.06-.066.137-.06.21.002.015.004.03.01.04.005.014.012.026.022.036.013.01.03.017.046.018.01.002.018 0 .027 0l-.136.185s-.02.02-.12.035c-.04.006-.08.002-.12-.003l-.02-.01-.07-.01c-.01-.02-.03-.04-.04-.05-.13-.2-.2-.45-.19-.72 0-.06.01-.12.01-.17.05-.03.1-.05.15-.07.25-.1.52-.12.74-.06.02 0 .05.01.07.02l.02.04v.01c.02.03.03.07.04.11v.01c.01.02.02.08.01.09l-.14.19c0-.01 0-.02-.01-.03-.01-.02-.02-.03-.03-.04-.02-.01-.03-.01-.04-.01zm-.394.873c-.038-.03-.075-.064-.11-.1H36l.033.002c.027 0 .056.002.084.004l-.06.09zm.244.333c-.032.03-.067.057-.107.077-.04.018-.085.03-.13.026-.034-.01-.068-.02-.098-.04s-.06-.04-.09-.07c-.24-.2-.47-.41-.7-.62l-.65-.59-.38-.34-.05-.05c-.02-.02-.02-.04-.03-.06-.01-.03 0-.06.02-.07.01-.02.03-.03.06-.03l.02-.02V6l.12-.174.42.296.01.1-.02.02.14.125.04-.06v.06c.01.04.02.08.04.124l.04.07-.01.01c-.01.01-.01.02 0 .03.01 0 .02 0 .03-.01.03.05.08.1.13.15.08.07.17.13.25.18.16.1.31.19.49.21.06.06.12.11.19.16l.02.02c.01.01.03.01.05-.01l.17-.25c.03 0 .07.01.1.03.04.03.07.08.08.13-.01.02-.01.04 0 .05l.05.03c-.07.11-.15.21-.25.3zm-1.266-3.362c.022-.03.065-.037.096-.014.03.02.04.063.017.093-.02.03-.06.036-.09.014s-.04-.065-.01-.094zm-1.26 1.984c-.023.03-.065.038-.097.015-.03-.022-.04-.064-.02-.094.03-.03.07-.04.1-.02s.04.06.02.09zm-9.092 4.495l.48-.674.436.51c-.19.05-.472.1-.916.16zM25 24.073l-.573.04.648-2.103L25 24.07zm11.832-15.04c.005.016.015.025.025.032l.053.037 1.004-1.392-.13-.092.13.093 1.004-1.39-.05-.03c-.013-.01-.023-.01-.04-.01-.016 0-.038.01-.067.04-.03.03-.08.08-.12.14l.01-.01-.07-.05c-.01-.01-.03-.02-.05-.02-.02 0-.04 0-.07.02-.03.02-.08.06-.11.11l-.01.02-.17-.12c-.03-.02-.07-.04-.1-.06-.04-.02-.08-.03-.12-.02-.05 0-.1.03-.13.07-.02 0-.04-.01-.07-.01l-.03-.08c-.01-.07.02-.13.02-.2.01-.1-.01-.21-.07-.29-.04-.07-.1-.13-.17-.17-.07-.05-.14-.09-.21-.12-.59-.32-1.16-.65-1.75-.97-.07-.04-.14-.07-.21-.1h-.01c-.03-.04-.04-.08-.05-.13l-.02-.05c-.01-.02-.02-.03-.04-.04-.02-.02-.05-.03-.08-.02-.02 0-.05.01-.07.03-.03.02-.05.04-.06.07-.02.03-.03.05-.05.08l-.03.04c-.01 0-.01 0-.02.01-.1.03-.2.09-.26.18-.01.02-.01.03-.02.04l-.07-.05c-.03-.01-.06-.03-.1-.03-.02 0-.04.01-.06.02-.02.01-.03.03-.04.05 0-.01 0-.01-.01-.01l-.04-.03c0-.01-.01-.01-.01 0V4.6c.02-.02.01-.048 0-.06l-.13-.1c-.02-.01-.03-.01-.05 0l.08-.12c.01-.014.01-.04-.01-.05l-.02-.02c-.01-.01-.04-.005-.05.01l-.05.06c-.07.06-.15.13-.21.2l-.03.04V4.5c-.03-.024-.06-.056-.08-.094l-.03-.068c-.01-.015-.01-.03-.02-.046-.01-.022-.02-.04-.03-.056l-.01-.01c0-.15.08-.137-.26-.216-.45-.103.8-.04-.06-.288-.89-.26-.97-.002-1.25.215-.28.216-.12-.345-.12-.345l-4.7 1.078-.83.12s-.48-.188-.34-.364c.14-.176.11-.05.55.08.44.128.34-.1.34-.1l.09-.423.3-.37s.13.155.33.122c.26-.04-.17-.303.06-.52.23-.22.15-.446.47-.437.32.01 1.18.26 1.46.043.28-.21-.31-.27-.75-.74-.44-.46-.47-1.09-.91-1.42-.44-.33-.36-.19-1.04-.3C26.3.25 25.1.22 24.7.02c-.39-.19.93 1.29 1.066 1.29.115.01-.1.59-.996 1.22-.11.08-.24-.11-.41.02-.11.09-.19.22-.22.25-.098.11.1.28 0 .33-.07.04-.217.22-.277.24-.43.2-.465.24-.58.24-.045 0-.263-.12-.275-.1-.04.07.26.32.37.3.2-.03.348-.12.664-.29.106-.06.31-.15.397-.16.14-.01-.06.31-.06.31l-.22.31C23.51 5 23.04 5.25 22.77 5.7c-.88 1.44-.73 1.64-1.953 3-.51.57-3.96 1.69-3.96 1.69.29.41.6.74.93 1.01-.38-.04-.77-.12-1.17-.26-1.96-.693-3.39-1-5.23-.363l-.9.31c-1.51-.76-2.11-.737-2.88-.506-.77.23-1.6.72-2.22 1.54-.62.83-1.34.68-2.16-.44-.82-1.12-1.03-1.21-1.46-1.14-.43.07-.76.42-1.21.64-1.6.8.95-.17 1.1.25.16.42.42 1.48.85 1.71.92.49 1.41 1.1 2.85.93 1.44-.17 2.35-.69 2.57-.94.22-.25.64-1.25.9-1.49.27-.24 1.29-.13 1.32.13.04.26-.63 1.04-.57 1.8.06.76.46 1.92.87 2.27.42.35.73 1.2.22 1.27-.51.07-2.17.02-2.26.15-.09.13-.17.04-.05.46.12.43 1.18 4.64 1.18 4.77 0 .13-1.37.39-1.37.39l.17 2.83 2.43-2.63.07-2.36 1.9 3.31-1.2.47 1.85 2.25.75-2.21-.34-1.4-1.74-3.39 1.45-1.39 1.28-1.19s1.54.7 1.72.81c.79.52 2.22 1.56 3.23 1.87 1.48.47 2.66.46 2.66.46l.48-.01.43 1.56-.46 2.44-1.44.1-.33-1.59-2.47 1.91 2.7.97 1.26.11-.42 2.21-1.13 1 3.25.02-.83-1.39.53-1.72 1.48.12 1.26-.63 1.1-6.79c1.216-1.53 3.61-5.61 3.61-5.61h2c.27.3.525.34.674.37.3.07.36-.13.59.13.34.38.04.12.62.81.57.7 2.18-.19 1.82-.91-.11-.22-.17-.72-.76-1.54-1.02-1.41-1.95-3.29-2.65-4.13-.25-.3-.74-.72-.74-.72s-.21-.03.07-.47c.03-.03.82-.99.69-1.01-.15-.02-1.34.87-1.32.83.09-.21.52-.77.59-.98.04-.13.04-.13-.19-.02-.02.01-.69.5-.8.6-.36.34-.54.67-.62.72-.51.28-.29.01-.6.15-.12.06-.73.09-.82.38-.07.23-.59.12-.77.25-.13.1-.18.36-.31.46-.2.14-.49.23-.54.28-.18.14-.42.18-.55.26-.29.18-.11.25-.35.43-.18.13-.22.46-.47.75l-.7-1.35s.34-.97.99-1.59c.65-.61 4.52-.96 4.52-.96l.06-.63s.58.33 1 .08c.21-.13.46-.21.65-.3.04.01.08.02.12.05l-.03.04c-.05.09-.09.17-.12.26l-.05.06c-.01.02-.01.04.01.05l.027.02c.01.01.036.01.05-.01l.08-.11c-.003.01 0 .03.017.04l.13.09c.02.01.04.01.06-.01h.008s0 .01.01.01l.04.02h.01c-.004.01-.01.01-.014.02l-.01.03c-.004.02-.004.05 0 .07.01.04.04.06.07.08.02.02.05.04.07.06l-.03.04c-.065.09-.1.197-.09.307-.008.018-.017.03-.027.046l-.06.07c-.02.02-.035.05-.04.08-.01.03-.01.058 0 .08.01.03.02.05.05.07.01.01.03.02.05.02h.06c.05 0 .09-.01.14.008.054.06.11.116.17.17.49.45 1 .88 1.487 1.33.06.055.12.11.18.158s.14.08.22.1c.1.026.2.017.3-.03.06-.024.12-.07.18-.08.03-.004.06-.004.09 0l.03.068c-.02.04-.03.1-.02.14.01.04.04.07.07.1.03.03.06.05.1.08l.17.12.665-.92-.67.94c-.036.05-.06.1-.07.14-.01.034-.01.06 0 .076.01.02.02.03.035.04l.07.05c-.04.05-.07.11-.09.15-.01.03-.01.06-.01.07z"/>
  </symbol>
</svg>
