<svg version="1.1" id="minutemen" xmlns="http://www.w3.org/2000/svg" xmlns:xlink="http://www.w3.org/1999/xlink" x="0px" y="0px"
	 viewBox="0 0 270 18" style="enable-background:new 0 0 270 18;" xml:space="preserve">
<g>
	<g>
		<path fill="#f7f7f7" d="M42.3,12.2c-0.5-1.3-0.9-1.7-2.4-1.7c0,1.6,0,4.1,0,5.7L41,17v0.7c-1.4,0-3.3,0-4.7,0V17l1.1-0.7
			c0-4.8,0-9.7,0-14.5l-0.9-0.6V0.4h5c2.7,0,4.8,1,4.8,4v2.2c0,2.1-1.2,3.3-2.8,3.6c0.7,0.4,1.1,0.9,1.3,1.6l1.2,3.2
			c0.2,0.7,0.7,1.6,1.5,1.5v1c-0.5,0.2-1.3,0.3-1.8,0.3c-1.6,0-1.7-1.1-2.2-2.4L42.3,12.2z M39.9,1.9c0,2.7,0,4.5,0,7.2h1.6
			c1.7,0,2.3-0.9,2.3-2.5V4.4c0-1.6-0.6-2.5-2.3-2.5H39.9z"/>
		<path fill="#f7f7f7" d="M49,17.7V17l1.1-0.7c0-4.9,0-9.7,0-14.6L49.2,1V0.4c3,0,5.8,0,8.8,0v3.9h-1.2l-0.7-2.4h-3.4
			c0,2.1,0,4.3,0,6.5h2.4L55.7,7h0.7c0,1.2,0,3,0,4.2h-0.7l-0.6-1.3h-2.4c0,1.8,0,3.6,0,5.5c0,0.4-0.1,0.6-0.5,0.8v0.1
			c1.4,0,2.8,0,4.2,0l0.8-2.4h1.1v3.9C55.2,17.7,52.1,17.7,49,17.7z"/>
		<path fill="#f7f7f7" d="M66,14.8L69,1.6l-0.9-0.4V0.4h3.4v0.8l-0.9,0.5l-3.9,16.2h-2.5l-4-16.1l-0.9-0.5V0.4h4.5V1l-0.9,0.7L66,14.8
			L66,14.8z"/>
		<path fill="#f7f7f7" d="M72.7,17.7V17l1.1-0.7c0-4.9,0-9.7,0-14.6L72.8,1V0.4c3,0,5.8,0,8.8,0v3.9h-1.2l-0.7-2.4h-3.4
			c0,2.1,0,4.3,0,6.5h2.4L79.4,7h0.7c0,1.2,0,3,0,4.2h-0.7l-0.6-1.3h-2.4c0,1.8,0,3.6,0,5.5c0,0.4-0.1,0.6-0.5,0.8v0.1
			c1.4,0,2.8,0,4.2,0l0.8-2.4H82v3.9C78.9,17.7,75.8,17.7,72.7,17.7z"/>
		<path fill="#f7f7f7" d="M90,12.2c-0.5-1.3-0.9-1.7-2.4-1.7c0,1.6,0,4.1,0,5.7l1.1,0.7v0.7c-1.4,0-3.3,0-4.7,0V17l1.1-0.7
			c0-4.8,0-9.7,0-14.5l-0.9-0.6V0.4h5c2.7,0,4.8,1,4.8,4v2.2c0,2.1-1.2,3.3-2.8,3.6c0.7,0.4,1.1,0.9,1.3,1.6l1.2,3.2
			c0.2,0.7,0.7,1.6,1.5,1.5v1c-0.5,0.2-1.3,0.3-1.8,0.3c-1.6,0-1.7-1.1-2.2-2.4L90,12.2z M87.6,1.9c0,2.7,0,4.5,0,7.2h1.6
			c1.7,0,2.3-0.9,2.3-2.5V4.4c0-1.6-0.6-2.5-2.3-2.5H87.6z"/>
		<path fill="#f7f7f7" d="M96.7,17.7V17l1.1-0.7c0-4.9,0-9.7,0-14.6L96.9,1V0.4c3,0,5.8,0,8.8,0v3.9h-1.2l-0.7-2.4h-3.4
			c0,2.1,0,4.3,0,6.5h2.4l0.6-1.4h0.7c0,1.2,0,3,0,4.2h-0.7l-0.6-1.3h-2.4c0,1.8,0,3.6,0,5.5c0,0.4-0.1,0.6-0.5,0.8v0.1
			c1.4,0,2.8,0,4.2,0l0.8-2.4h1.1v3.9C102.9,17.7,99.8,17.7,96.7,17.7z"/>
		<path fill="#f7f7f7" d="M111.8,0h6.1l1.3,7.8l0.6,7.7l0.5-7.7l1.4-7.8h6.3v17.7h-4.5v-4.1l0.6-11.5l-1.1,8.3l-1.4,7.2h-4.3l-1.3-7.2
			l-1.1-8.3l0.6,11.5v4h-3.7V0z"/>
		<path fill="#f7f7f7" d="M130.3,0h4.8v17.7h-4.8V0z"/>
		<path fill="#f7f7f7" d="M137.4,0h4.7l3,6.8l1.7,6.1l-1.1-8V0h4v17.7h-4.6l-3.1-7l-1.7-5.9l1.1,7.8v5.1h-4V0z"/>
		<path fill="#f7f7f7" d="M159.5,0h4.8v17.7h-3.4l-0.9-2l-1.1,2c-0.1,0.1-0.4,0.1-0.8,0.2c-0.4,0.1-0.9,0.1-1.5,0.1
			c-0.6,0-1.2-0.1-1.7-0.3c-0.6-0.2-1.1-0.5-1.5-1c-0.4-0.5-0.8-1.1-1.1-1.9s-0.4-1.8-0.4-3.1V0h4.7v12.5c0,0.6,0.1,1.1,0.3,1.3
			c0.2,0.3,0.5,0.4,1,0.4c0.3,0,0.6,0,0.9-0.1c0.2,0,0.5-0.1,0.7-0.2V0z"/>
		<path fill="#f7f7f7" d="M165.8,4V0h11.3v4h-3.3v13.7h-4.8V4H165.8z"/>
		<path fill="#f7f7f7" d="M178.7,0h9.7v4h-5.1v3.1h4.2v3.6h-4.2V14h5.3v3.6h-9.9V0z"/>
		<path fill="#f7f7f7" d="M190.5,0h6.1l1.3,7.8l0.6,7.7l0.5-7.7l1.4-7.8h6.3v17.7h-4.5v-4.1l0.6-11.5l-1.1,8.3l-1.4,7.2h-4.3l-1.3-7.2
			l-1.1-8.3l0.6,11.5v4h-3.7V0z"/>
		<path fill="#f7f7f7" d="M209,0h9.7v4h-5.1v3.1h4.2v3.6h-4.2V14h5.3v3.6H209V0z"/>
		<path fill="#f7f7f7" d="M220.8,0h4.7l3,6.8l1.7,6.1l-1.1-8V0h4v17.7h-4.6l-3.1-7l-1.7-5.9l1.1,7.8v5.1h-4V0z"/>
	</g>
	<g>
		<path fill="#f7f7f7" d="M30.6,7.6C30,8,28.8,9,26.8,10.5c0.2,0.5,0.4,1.3,0.7,2.3c0.3,1,0.5,1.8,0.7,2.3l-4-2.7c0,0-1.3,0.9-3.9,2.7
			c0.9-3,1.4-4.5,1.4-4.6c0,0-1.3-1-3.8-2.9l4.4-0.1c0.2,0,0.4,0,0.4,0C23,6.5,23.5,5,24.3,2.9c0.6,1.8,1.2,3.3,1.6,4.5
			c0.1,0,0.1,0,0.3,0C27.2,7.5,28.8,7.5,30.6,7.6z"/>
	</g>
	<g>
		<path fill="#f7f7f7" d="M251.9,7.6c-0.6,0.5-1.9,1.4-3.8,2.9c0.2,0.5,0.4,1.3,0.7,2.3c0.3,1,0.5,1.8,0.7,2.3l-4-2.7
			c0,0-1.3,0.9-3.9,2.7c0.9-3,1.4-4.5,1.4-4.6c0,0-1.3-1-3.8-2.9l4.4-0.1c0.2,0,0.4,0,0.4,0c0.3-0.9,0.8-2.4,1.6-4.5
			c0.6,1.8,1.2,3.3,1.6,4.5c0.1,0,0.1,0,0.3,0C248.5,7.5,250,7.5,251.9,7.6z"/>
	</g>
</g>
</svg>
