<?xml version="1.0" encoding="utf-8"?>
<!DOCTYPE svg PUBLIC "-//W3C//DTD SVG 1.1//EN" "http://www.w3.org/Graphics/SVG/1.1/DTD/svg11.dtd">
<svg version="1.1" id="Layer_1" xmlns="http://www.w3.org/2000/svg" xmlns:xlink="http://www.w3.org/1999/xlink" x="0px" y="0px"
	 viewBox="0 0 270 18" style="enable-background:new 0 0 270 18;" xml:space="preserve">
<g>
	<path fill="#f7f7f7" d="M83.7,15.1L82.6,12c-0.3-0.8-0.6-1.2-1.3-1.6c1.6-0.3,2.7-1.5,2.7-3.6V4.6c0-3-2.1-4-4.8-4h-4.9v0.7L75.2,2
		c0,4.7,0,9.5,0,14.3L74.1,17v0.7c1.4,0,3.2,0,4.6,0V17l-1.1-0.7c0-1.6,0-4,0-5.6c1.4,0,1.9,0.3,2.4,1.7l1.2,3.1
		c0.5,1.3,0.6,2.4,2.2,2.4c0.5,0,1.3-0.1,1.8-0.3v-0.9C84.4,16.7,83.9,15.8,83.7,15.1z M79.2,9.3h-1.6c0-2.6,0-4.5,0-7.1h1.6
		c1.7,0,2.2,0.9,2.2,2.5v2.2C81.5,8.4,80.8,9.3,79.2,9.3z"/>
	<path fill="#f7f7f7" d="M93.8,16.2c-1.4,0-2.7,0-4.1,0v-0.1c0.4-0.1,0.5-0.4,0.5-0.8c0-1.8,0-3.6,0-5.4h2.3l0.6,1.3h0.7
		c0-1.2,0-2.9,0-4.1h-0.7l-0.6,1.3h-2.3c0-2.1,0-4.3,0-6.4h3.3l0.7,2.4h1.2V0.7c-3,0-5.7,0-8.6,0v0.6l0.9,0.6c0,4.8,0,9.5,0,14.3
		L86.6,17v0.7c3.1,0,6.1,0,9.1,0v-3.8h-1.1L93.8,16.2z"/>
	<polygon fill="#f7f7f7" points="105.4,1.4 106.3,1.8 103.3,14.8 103.3,14.8 100.3,1.9 101.2,1.3 101.2,0.7 96.8,0.7 96.8,1.4 
		97.7,1.9 101.6,17.8 104,17.8 107.9,1.9 108.7,1.4 108.7,0.7 105.4,0.7 	"/>
	<path fill="#f7f7f7" d="M117.1,16.2c-1.4,0-2.7,0-4.1,0v-0.1c0.4-0.1,0.5-0.4,0.5-0.8c0-1.8,0-3.6,0-5.4h2.3l0.6,1.3h0.7
		c0-1.2,0-2.9,0-4.1h-0.7l-0.6,1.3h-2.3c0-2.1,0-4.3,0-6.4h3.3l0.7,2.4h1.2V0.7c-3,0-5.7,0-8.6,0v0.6l0.9,0.6c0,4.8,0,9.5,0,14.3
		l-1.1,0.7v0.7c3.1,0,6.1,0,9.1,0v-3.8h-1.1L117.1,16.2z"/>
	<path fill="#f7f7f7" d="M130.6,15.1l-1.1-3.1c-0.3-0.8-0.6-1.2-1.3-1.6c1.6-0.3,2.7-1.5,2.7-3.6V4.6c0-3-2.1-4-4.8-4h-4.9v0.7l0.9,0.6
		c0,4.7,0,9.5,0,14.3L121,17v0.7c1.4,0,3.2,0,4.6,0V17l-1.1-0.7c0-1.6,0-4,0-5.6c1.4,0,1.9,0.3,2.4,1.7l1.2,3.1
		c0.5,1.3,0.6,2.4,2.2,2.4c0.5,0,1.3-0.1,1.8-0.3v-0.9C131.3,16.7,130.8,15.8,130.6,15.1z M126.1,9.3h-1.6c0-2.6,0-4.5,0-7.1h1.6
		c1.7,0,2.2,0.9,2.2,2.5v2.2C128.3,8.4,127.7,9.3,126.1,9.3z"/>
	<path fill="#f7f7f7" d="M140.7,16.2c-1.4,0-2.7,0-4.1,0v-0.1c0.4-0.1,0.5-0.4,0.5-0.8c0-1.8,0-3.6,0-5.4h2.3l0.6,1.3h0.7
		c0-1.2,0-2.9,0-4.1h-0.7l-0.6,1.3h-2.3c0-2.1,0-4.3,0-6.4h3.3l0.7,2.4h1.2V0.7c-3,0-5.7,0-8.6,0v0.6l0.9,0.6c0,4.8,0,9.5,0,14.3
		l-1.1,0.7v0.7c3.1,0,6.1,0,9.1,0v-3.8h-1.1L140.7,16.2z"/>
	<path fill="#f7f7f7" d="M157,8.3c-0.4-0.4-0.8-0.7-1.3-0.9c-0.5-0.2-1.1-0.4-1.8-0.5c-0.4-0.1-0.7-0.2-0.9-0.2
		c-0.2-0.1-0.4-0.2-0.5-0.3c-0.1-0.1-0.2-0.2-0.3-0.4c0-0.2-0.1-0.4-0.1-0.6c0-0.5,0.1-0.9,0.4-1.1c0.2-0.2,0.7-0.3,1.4-0.3
		c0.6,0,1.1,0,1.5,0.1c0.5,0.1,1,0.2,1.5,0.3l0.4-3.7c-0.5-0.2-1-0.4-1.7-0.6S154.2,0,153.2,0c-1.7,0-3.1,0.5-4,1.4
		c-0.9,0.9-1.4,2.4-1.4,4.3c0,1,0.1,1.8,0.2,2.4c0.2,0.6,0.4,1.2,0.7,1.6c0.3,0.4,0.7,0.7,1.2,1c0.5,0.2,1,0.4,1.7,0.5
		c0.4,0.1,0.7,0.2,1,0.3c0.3,0.1,0.5,0.2,0.6,0.3c0.1,0.1,0.2,0.3,0.3,0.4c0.1,0.2,0.1,0.4,0.1,0.7c0,0.6-0.1,1-0.4,1.2
		c-0.3,0.2-0.8,0.3-1.5,0.3c-0.6,0-1.2-0.1-1.7-0.2c-0.5-0.2-1.1-0.3-1.7-0.6l-0.7,3.4c0.5,0.3,1.1,0.5,1.9,0.8
		c0.7,0.2,1.7,0.3,2.8,0.3c2,0,3.4-0.5,4.3-1.4c0.9-0.9,1.3-2.4,1.3-4.4c0-1-0.1-1.8-0.3-2.4C157.7,9.2,157.4,8.7,157,8.3z"/>
	<polygon fill="#f7f7f7" points="165.5,5.2 165.1,10.2 164.5,5.2 163.1,0.3 158.2,0.3 162.4,11.7 162.4,17.7 167,17.7 167,11.5 
		171.1,0.3 166.9,0.3 	"/>
	<polygon fill="#f7f7f7" points="180.5,5.1 181.6,13 179.9,7 177,0.3 172.3,0.3 172.3,17.7 176.3,17.7 176.3,12.7 175.2,5 176.9,10.8 
		179.9,17.7 184.4,17.7 184.4,0.3 180.5,0.3 	"/>
	<path fill="#f7f7f7" d="M194.8,14c-0.5,0.2-1,0.3-1.6,0.3c-0.3,0-0.6,0-0.9-0.1c-0.3-0.1-0.5-0.3-0.7-0.6c-0.2-0.3-0.3-0.7-0.4-1.2
		c-0.1-0.5-0.1-1.2-0.1-2V7.4c0-0.7,0-1.3,0.1-1.7c0.1-0.4,0.2-0.8,0.4-1c0.2-0.2,0.4-0.4,0.7-0.5c0.3-0.1,0.6-0.1,0.9-0.1
		c0.6,0,1.1,0.1,1.6,0.2c0.5,0.1,1,0.2,1.5,0.4l0.6-3.7c-0.4-0.2-0.9-0.5-1.6-0.7c-0.7-0.2-1.5-0.3-2.4-0.3c-1.2,0-2.2,0.2-3.1,0.6
		c-0.8,0.4-1.5,1-2.1,1.7c-0.5,0.8-0.9,1.7-1.2,2.8c-0.2,1.1-0.4,2.4-0.4,3.8c0,1.4,0.1,2.7,0.4,3.8c0.2,1.1,0.6,2.1,1.2,2.9
		c0.5,0.8,1.2,1.4,2.1,1.8c0.8,0.4,1.9,0.6,3.1,0.6c1,0,1.8-0.1,2.5-0.4c0.7-0.2,1.3-0.5,1.7-0.8l-0.8-3.4
		C195.8,13.7,195.3,13.9,194.8,14z"/>
	<path fill="#f7f7f7" d="M65.4,7.7c-0.1,0-0.2,0-0.3,0c-0.4-1.2-0.9-2.7-1.6-4.4c-0.7,2.1-1.2,3.5-1.5,4.5c0,0-0.2,0-0.4,0l-4.3,0.1
		c2.5,1.9,3.8,2.9,3.8,2.9c0,0.1-0.4,1.6-1.3,4.5c2.6-1.8,3.9-2.7,3.9-2.7l3.9,2.7c-0.2-0.5-0.4-1.2-0.7-2.2c-0.3-1-0.5-1.8-0.7-2.3
		c1.9-1.5,3.1-2.4,3.7-2.9C67.9,7.7,66.4,7.7,65.4,7.7z"/>
	<path fill="#f7f7f7" d="M209.7,10.6c1.9-1.5,3.1-2.4,3.7-2.9c-1.9,0-3.3-0.1-4.4-0.1c-0.1,0-0.2,0-0.3,0c-0.4-1.2-0.9-2.7-1.6-4.4
		c-0.7,2.1-1.2,3.5-1.5,4.5c0,0-0.2,0-0.4,0l-4.3,0.1c2.5,1.9,3.8,2.9,3.8,2.9c0,0.1-0.4,1.6-1.3,4.5c2.6-1.8,3.9-2.7,3.9-2.7
		l3.9,2.7c-0.2-0.5-0.4-1.2-0.7-2.2C210.1,11.8,209.8,11.1,209.7,10.6z"/>
</g>
</svg>
