<svg xmlns="http://www.w3.org/2000/svg" viewBox="0 0 64 64" enable-background="new 0 0 64 64">
	<polygon points="25.1,15.5 25,15.5 22.7,22 27.3,22 	"/><path d="M39.3,26.6c0.2,0.1,0.4,0.2,0.7,0.3c0.3,0,0.5,0.1,0.8,0.1c0.7,0,1.2-0.1,1.6-0.3c0.4-0.2,0.7-0.5,0.8-0.8 c0.2-0.3,0.3-0.7,0.3-1c0-0.3,0.1-0.6,0.1-0.8v-1.3c-0.1,0.1-0.3,0.2-0.6,0.3c-0.2,0.1-0.5,0.1-0.7,0.2c-0.3,0-0.5,0.1-0.8,0.1 c-0.3,0-0.6,0.1-0.8,0.1c-0.3,0-0.5,0.1-0.8,0.2c-0.3,0.1-0.5,0.2-0.7,0.3c-0.2,0.1-0.3,0.3-0.5,0.5c-0.1,0.2-0.2,0.5-0.2,0.8 c0,0.3,0.1,0.6,0.2,0.8C38.9,26.3,39.1,26.4,39.3,26.6z"/><path d="M0,0v64l2.9-2.9L8,64l2.9-2.9L16,64l2.9-2.9L24,64l2.9-2.9L32,64l2.9-2.9L40,64l2.9-2.9L48,64l2.9-2.9 L56,64l2.9-2.9L64,64V0H0z M35.5,23.6c0.3-0.5,0.6-0.8,1-1.1c0.4-0.3,0.9-0.5,1.4-0.6c0.5-0.1,1-0.3,1.6-0.3 c0.5-0.1,1.1-0.1,1.6-0.2c0.5,0,1-0.1,1.4-0.2c0.4-0.1,0.7-0.2,0.9-0.4c0.2-0.2,0.3-0.5,0.3-0.8c0-0.4-0.1-0.7-0.2-0.9 c-0.1-0.2-0.3-0.4-0.5-0.5c-0.2-0.1-0.4-0.2-0.7-0.2c-0.3,0-0.6-0.1-0.9-0.1c-0.7,0-1.2,0.1-1.6,0.4c-0.4,0.3-0.6,0.8-0.7,1.5h-3.5 c0-0.8,0.3-1.5,0.6-2.1c0.4-0.5,0.8-1,1.4-1.3c0.6-0.3,1.2-0.6,1.9-0.7c0.7-0.1,1.4-0.2,2.1-0.2c0.6,0,1.3,0,2,0.1 c0.7,0.1,1.3,0.3,1.8,0.5c0.5,0.3,1,0.6,1.3,1.1c0.3,0.5,0.5,1.1,0.5,1.9v6.7c0,0.6,0,1.1,0.1,1.7c0.1,0.5,0.2,0.9,0.3,1.2h-3.6 c-0.1-0.2-0.1-0.4-0.2-0.6c0-0.2-0.1-0.4-0.1-0.6c-0.6,0.6-1.2,1-2,1.2c-0.8,0.2-1.5,0.3-2.3,0.3c-0.6,0-1.2-0.1-1.7-0.2 c-0.5-0.1-1-0.4-1.4-0.7c-0.4-0.3-0.7-0.7-0.9-1.2c-0.2-0.5-0.3-1.1-0.3-1.7C35.1,24.7,35.2,24.1,35.5,23.6z M23.1,11.1h4l6.6,17.8 h-4.1l-1.3-4h-6.6l-1.4,4h-3.9L23.1,11.1z M50.7,47.1H13.3v-4h37.5V47.1z M50.7,38H13.3v-4h37.5V38z"/>
</svg>
