<svg xmlns="http://www.w3.org/2000/svg" viewBox="0 0 60.004 64" enable-background="new 0 0 60.004 64"><g fill-rule="evenodd" clip-rule="evenodd" ><path d="M9.002 44.001h6c.553 0 1-.447 1-1v-6c0-.553-.447-1-1-1h-6c-.553 0-1 .447-1 1v6c0 .552.447 1 1 1zM27.001 36.001h-6c-.553 0-1 .447-1 1v6c0 .553.447 1 1 1h6c.553 0 1-.447 1-1v-6c0-.553-.447-1-1-1zM39.001 36.001h-6c-.553 0-1 .447-1 1v6c0 .553.447 1 1 1h6c.553 0 1-.447 1-1v-6c0-.553-.447-1-1-1zM51 36.001h-6c-.553 0-1 .447-1 1v6c0 .553.447 1 1 1h6c.553 0 1-.447 1-1v-6c0-.553-.447-1-1-1zM9.002 56h6c.553 0 1-.447 1-1v-6c0-.553-.447-1-1-1h-6c-.553 0-1 .447-1 1v6c0 .553.447 1 1 1zM27.001 48h-6c-.553 0-1 .447-1 1v6c0 .553.447 1 1 1h6c.553 0 1-.447 1-1v-6c0-.552-.447-1-1-1zM39.001 48h-6c-.553 0-1 .447-1 1v6c0 .553.447 1 1 1h6c.553 0 1-.447 1-1v-6c0-.552-.447-1-1-1zM51 48h-6c-.553 0-1 .447-1 1v6c0 .553.447 1 1 1h6c.553 0 1-.447 1-1v-6c0-.552-.447-1-1-1zM9.002 32.001h41.998c.553 0 1-.447 1-1v-6c0-.553-.447-1-1-1h-41.998c-.553 0-1 .447-1 1v6c0 .553.447 1 1 1zM60.002 12c0-2.209-1.791-4-4-4h-4.004v-3.998c0-2.209-1.791-4-4-4h-4c-2.209 0-4 1.791-4 4v3.998h-19.999v-4c0-2.209-1.791-4-4-4h-4c-2.208 0-3.999 1.791-3.999 4v4h-3.998c-2.209 0-4 1.791-4 4l-.002 48c0 2.209 1.791 4 4 4h52c2.209 0 4.004-1.793 4.004-4.002l-.002-47.998zm-15.997-7c0-.553.447-1 1-1h2c.553 0 1 .447 1 1v6c0 .553-.447 1-1 1h-2c-.553 0-1-.447-1-1v-6zm-32 0c0-.553.447-1 1-1h2c.553 0 1 .447 1 1v6c0 .553-.447 1-1 1h-2c-.553 0-1-.447-1-1v-6zm43.995 55h-51.998v-39.999h51.998v39.999z"/></g></svg>