<svg xmlns="http://www.w3.org/2000/svg" viewBox="0 0 52.095 63.714" enable-background="new 0 0 52.095 63.714"><path d="M16.029 19.896h4.007v32.058h-4.007zM24.044 19.896h4.007v32.058h-4.007zM32.058 19.896h4.007v32.058h-4.007zM0 7.875h52.095v4.007h-52.095zM35.925 9.878h-3.726v-4.007c0-1.182-.963-2.144-2.145-2.144h-8.014c-1.182 0-2.145.962-2.145 2.144v4.007h-3.725v-4.007c0-3.237 2.634-5.871 5.87-5.871h8.015c3.236 0 5.87 2.634 5.87 5.871v4.007zM38.069 63.714h-24.044c-3.234 0-6.066-2.492-6.312-5.715l-3.7-48.032 3.996-.274 3.7 47.988c.088 1.144 1.17 2.034 2.317 2.034h24.044c1.147 0 2.229-.874 2.317-2.017l3.7-48.036 3.994.338-3.7 47.984c-.246 3.222-3.078 5.73-6.312 5.73z"/></g></svg>