<svg xmlns="http://www.w3.org/2000/svg" viewBox="0 0 64 64" enable-background="new 0 0 64 64"><path d="M0 64l5.536-22.143 33.688-33.689 16.607 16.607-33.688 33.689-22.143 5.536zm9.349-19.984l-3.545 14.18 14.18-3.545 29.876-29.876-10.636-10.634-29.875 29.875zM18.455 57.208c-1.435-5.758-5.905-10.228-11.663-11.663l1.022-4.097c7.277 1.813 12.925 7.461 14.738 14.738l-4.097 1.022zM44.541 16.471l2.986 2.986-29.512 29.512-2.986-2.986zM2.902 61.098l6.587-1.647c-.607-2.431-2.509-4.333-4.94-4.94l-1.647 6.587zM57.386 23.221l-16.607-16.607 6.615-6.614 1.034.137c8.019 1.069 14.366 7.416 15.434 15.434l.138 1.035-6.614 6.615zm-10.635-16.607l10.635 10.635 2.121-2.119c-1.117-5.327-5.31-9.52-10.637-10.636l-2.119 2.12z"/></g></svg>