<svg xmlns="http://www.w3.org/2000/svg" viewBox="0 0 64 62.42" enable-background="new 0 0 64 62.42"><path fill-rule="evenodd" clip-rule="evenodd"  d="M31.998 0c-17.669 0-31.998 14.327-31.998 32.002 0 14.137 9.168 26.131 21.885 30.363 1.6.293 2.184-.694 2.184-1.542 0-.76-.028-2.772-.043-5.443-8.901 1.934-10.78-4.29-10.78-4.29-1.455-3.697-3.553-4.681-3.553-4.681-2.905-1.985.22-1.945.22-1.945 3.211.226 4.902 3.298 4.902 3.298 2.855 4.89 7.49 3.478 9.313 2.659.291-2.068 1.117-3.478 2.032-4.278-7.106-.808-14.576-3.553-14.576-15.815 0-3.493 1.247-6.35 3.294-8.587-.329-.81-1.427-4.063.314-8.469 0 0 2.687-.86 8.8 3.28 2.552-.71 5.29-1.065 8.011-1.077 2.717.012 5.455.367 8.011 1.077 6.109-4.141 8.791-3.28 8.791-3.28 1.746 4.406.647 7.659.318 8.469 2.051 2.237 3.289 5.093 3.289 8.587 0 12.293-7.482 14.998-14.611 15.79 1.149.988 2.172 2.941 2.172 5.926 0 4.278-.039 7.729-.039 8.779 0 .856.576 1.851 2.2 1.539 12.706-4.241 21.866-16.227 21.866-30.36 0-17.675-14.328-32.002-32.002-32.002z"/></svg>