<svg xmlns="http://www.w3.org/2000/svg" viewBox="0 0 59.961 64" enable-background="new 0 0 59.961 64"><path d="M36.744 40.755c-1.204-1.615-2.665-3.004-4.219-4.279-1.493-1.225-3.372-2.394-4.397-4.084-2.368-3.908 2.735-6.916 4.944-9.385 5.018-5.609 3.695-15.91-2.694-19.961 1.585 0 3.762.412 5.263-.041 1.739-.524 3.546-2.075 5.122-2.997-5.463 0-10.926-.019-16.389 0-5.103.018-10.389.743-14.447 4.086-4.616 3.804-7.085 10.044-5.194 15.895 2.2 6.808 9.351 9.717 15.997 8.903-.371 1.401-.983 2.51-.797 4.012.23 1.862 1.286 3.569 2.409 5.025-6.065.156-13.297 1.215-18.087 5.251-4.529 3.815-5.896 10.74-1.861 15.397 4.169 4.812 11.91 5.76 17.863 5.331 5.29-.381 10.535-2.042 14.367-5.849 4.517-4.488 6.15-11.894 2.12-17.304zm-14.823-13.979c-10.972 0-15.869-24.06-3.192-23.998 6.205.03 9.008 6.898 9.944 12.054.959 5.284-.174 11.944-6.752 11.944zm10.629 28.888c-3.602 6.161-13.694 5.572-19.292 3.103-5.813-2.564-8.762-10.114-3.406-14.852 2.337-2.068 5.782-2.983 8.798-3.404 1.665-.232 3.512-.438 5.192-.25 1.215.136 1.947.826 2.965 1.547 4.407 3.124 9.109 8.093 5.743 13.856zM59.961 7.999h-9v-7h-4v7h-8v4h8v10h4v-10h9z"/></g></svg>