<svg xmlns="http://www.w3.org/2000/svg" viewBox="0 0 64.001 41.319" enable-background="new 0 0 64.001 41.319"><path d="M32 41.319c-21.629 0-31.409-19.062-31.815-19.873-.247-.495-.247-1.078 0-1.573.407-.811 10.186-19.873 31.815-19.873s31.409 19.062 31.815 19.873c.247.495.247 1.078 0 1.573-.406.811-10.185 19.873-31.815 19.873zm-28.23-20.66c2.042 3.465 11.184 17.143 28.23 17.143s26.189-13.678 28.23-17.143c-2.041-3.464-11.183-17.143-28.23-17.143s-26.188 13.679-28.23 17.143zM32 37.538c-9.307 0-16.878-7.572-16.878-16.879s7.572-16.879 16.878-16.879 16.878 7.572 16.878 16.879-7.571 16.879-16.878 16.879zm0-30.241c-7.369 0-13.364 5.994-13.364 13.363s5.996 13.362 13.364 13.362 13.364-5.994 13.364-13.363-5.995-13.362-13.364-13.362zM32 29.978c-5.139 0-9.318-4.181-9.318-9.319 0-.971.786-1.758 1.757-1.758.971 0 1.757.787 1.757 1.758 0 3.2 2.604 5.802 5.803 5.802s5.803-2.603 5.803-5.802-2.603-5.802-5.802-5.802c-.971 0-1.757-.787-1.757-1.758s.786-1.758 1.757-1.758c5.139 0 9.318 4.181 9.318 9.319s-4.179 9.318-9.318 9.318z"/></g></svg>