<svg xmlns="http://www.w3.org/2000/svg" viewBox="0 0 64 64" enable-background="new 0 0 64 64">
  <path d="M7.7,11c-1.9,2.4-6.1,13.6,11.9,32.1c19,19.4,31.3,15.3,33.4,13.1L40.3,43.5c-1.8,1.8-4.1,0.2-8.5-3.4 c-2.9-2.4-6.2-5.5-9.1-9.1c-2-2.5-3.8-5.1-2-7L7.7,11z"/><path d="M57.6,51.7c0.8-0.8,0.7-2.1,0-2.8v0c0,0-9.9-9.9-9.9-9.9c-0.8-0.8-2-0.8-2.8,0l-3.6,3.6L54,55.2 C54,55.2,57.6,51.7,57.6,51.7L57.6,51.7z"/><path d="M25.3,19.4c0.8-0.8,0.7-2.1,0-2.8v0L15.1,6.4c-0.8-0.8-2-0.8-2.8,0L8.7,10l13,13 C21.7,23,25.3,19.5,25.3,19.4L25.3,19.4z"/>
</svg>
