<svg xmlns="http://www.w3.org/2000/svg" viewBox="0 0 64 64" enable-background="new 0 0 64 64"><path  d="M32 0c-17.645 0-32 14.356-32 32 0 17.645 14.355 32 32 32s32-14.355 32-32c0-17.644-14.355-32-32-32zm18.45 49.635v-1.263c0-4.363-5.043-5.956-7.74-7.11-.977-.418-2.819-1.302-4.71-2.226-.639-.312-1.214-1.143-1.286-1.851l-.209-2.069c1.446-1.347 2.749-3.222 2.97-5.313h.326c.513 0 .996-.384 1.072-.855l.512-3.162c.068-.675-.57-1.085-1.084-1.085l.032-.192c.066-.38.106-.748.13-1.105.034-.287.059-.585.071-.893.054-1.493-.199-2.798-.616-3.529-.425-1.022-1.071-2.014-1.97-2.865-2.499-2.366-5.398-3.288-7.871-1.386-1.683-.291-3.684.478-5.129 2.171-.789.924-1.28 1.981-1.49 3.021-.188.648-.313 1.433-.344 2.283-.034.945.059 1.81.233 2.509-.492.031-.985.436-.985 1.074l.51 3.162c.076.471.559.855 1.072.855h.293c.464 2.261 1.665 4.117 2.994 5.411l-.201 1.999c-.072.708-.647 1.538-1.286 1.853-1.828.893-3.628 1.752-4.706 2.195-2.539 1.045-7.742 2.747-7.742 7.11v.987c-4.236-4.563-6.85-10.654-6.85-17.357 0-14.09 11.464-25.554 25.555-25.554 14.092 0 25.555 11.464 25.555 25.554-.001 6.834-2.715 13.039-7.106 17.631z"/></svg>