<svg xmlns="http://www.w3.org/2000/svg" viewBox="0 0 64 64" enable-background="new 0 0 64 64"><path  d="M54.628 9.372c-12.496-12.496-32.76-12.496-45.256 0s-12.496 32.76 0 45.256 32.76 12.496 45.256 0 12.496-32.76 0-45.256zm-7.713-1.656c1.862 1.146 3.624 2.518 5.238 4.131s2.986 3.376 4.131 5.238l-7.955 7.955c-.865-2.031-2.121-3.935-3.778-5.592-1.657-1.657-3.561-2.913-5.592-3.778l7.956-7.954zm-31.244 17.324l-7.955-7.955c1.146-1.862 2.518-3.624 4.131-5.238s3.376-2.986 5.238-4.131l7.955 7.955c-2.031.865-3.935 2.121-5.592 3.777-1.656 1.657-2.912 3.561-3.777 5.592zm1.414 31.244c-1.862-1.146-3.624-2.518-5.238-4.131-1.614-1.614-2.986-3.376-4.131-5.238l7.955-7.955c.865 2.031 2.121 3.935 3.778 5.592 1.657 1.657 3.561 2.913 5.592 3.778l-7.956 7.954zm6.076-15.445c-4.881-4.881-4.881-12.797 0-17.678s12.797-4.881 17.678 0 4.881 12.797 0 17.678-12.797 4.881-17.678 0zm15.799 7.49c2.031-.865 3.935-2.121 5.592-3.777 1.657-1.657 2.913-3.561 3.777-5.592l7.955 7.955c-1.146 1.862-2.518 3.624-4.131 5.238-1.614 1.614-3.376 2.986-5.238 4.131l-7.955-7.955z"/></svg>