<svg xmlns="http://www.w3.org/2000/svg" viewBox="0 0 49.741 64" enable-background="new 0 0 49.741 64"><path  d="M40.472 10.114h-17.14v15.389c0 .498-.296.948-.753 1.146-.159.069-.328.102-.495.102-.312 0-.62-.117-.856-.339l-3.89-3.659-3.89 3.659c-.363.341-.894.434-1.351.237-.458-.198-.753-.648-.753-1.146v-15.389h-3.195c-1.086 0-1.969-.884-1.969-1.969 0-1.086.884-1.969 1.969-1.969h35.253c1.703 0 3.09-1.385 3.09-3.088s-1.386-3.088-3.09-3.088h-35.253c-4.494 0-8.149 3.654-8.149 8.145v46.591c0 5.108 4.158 9.264 9.268 9.264h31.204c5.111 0 9.268-4.156 9.268-9.264v-35.358c.001-5.108-4.157-9.264-9.268-9.264z"/></svg>