<svg xmlns="http://www.w3.org/2000/svg" viewBox="0 0 64 64" enable-background="new 0 0 64 64">
  <path fill-rule="evenodd" clip-rule="evenodd" d="M58.4,36.9v16.8c0,1.2-0.7,2.1-2.1,2.1c-0.4,0-1.2-0.8-2.3-1.9V8.9 C55,7.7,55.9,7,56.3,7c1.6,0,2.1,0.9,2.1,2.1v17.2c2.9,0.1,5.6,2.4,5.6,5.3C64.1,34.5,61.3,36.8,58.4,36.9z M23.8,41 c0.1,0,0-19.2,0-19.2c14.8,0,23.6-6.4,28.2-10.8v40.8C47.3,47.4,38.6,41,23.8,41z M15.1,57.8L10.8,41H6.5c0,0-1.3-2.9-1.9-6.4 c-1.1,0-2.1,0-2.4,0c-1.2,0-2.2-0.9-2.2-2.1v-2.1c0-1.2,1-2.1,2.2-2.1c0.4,0,1.4,0,2.4,0c0.6-3.5,1.9-6.4,1.9-6.4h15.1V41h-4.3 l0.5,2.1H20l1.1,4.3h-2.1l2.7,10.5H15.1z"/>
</svg>
