<svg xmlns="http://www.w3.org/2000/svg" viewBox="0 0 64 64" enable-background="new 0 0 64 64"><path  d="M61.66 27.34l-6.34-1.059c-.461-1.885-1.133-3.684-2.008-5.363l4.059-5.031c.863-1.064.824-2.594-.086-3.619l-2.519-2.838c-.914-1.025-2.43-1.242-3.586-.512l-5.422 3.408c-2.387-1.666-5.086-2.896-8-3.609l-1.063-6.377c-.222-1.35-1.39-2.34-2.761-2.34h-3.801c-1.367 0-2.539.99-2.758 2.34l-1.066 6.377c-2.41.59-4.668 1.541-6.73 2.797l-5.156-3.68c-1.109-.797-2.637-.672-3.606.297l-2.684 2.686c-.969.969-1.094 2.496-.297 3.607l3.688 5.166c-1.242 2.047-2.184 4.291-2.773 6.68l-6.41 1.07c-1.349.222-2.341 1.39-2.341 2.762v3.797c0 1.371.992 2.539 2.34 2.762l6.41 1.07c.484 1.965 1.188 3.842 2.121 5.582l-4.039 5.004c-.859 1.062-.824 2.594.086 3.619l2.52 2.838c.914 1.025 2.43 1.24 3.586.512l5.5-3.455c2.328 1.592 4.961 2.762 7.785 3.453l1.066 6.377c.219 1.35 1.391 2.34 2.758 2.34h3.801c1.371 0 2.539-.99 2.762-2.34l1.062-6.377c2.379-.582 4.609-1.516 6.652-2.748l5.371 3.834c1.109.799 2.637.672 3.605-.299l2.684-2.684c.969-.969 1.098-2.494.297-3.607l-3.824-5.359c1.246-2.055 2.191-4.305 2.777-6.701l6.34-1.059c1.352-.224 2.34-1.391 2.34-2.763v-3.797c0-1.371-.988-2.539-2.34-2.761zm-29.558 16.66c-6.627 0-12-5.373-12-12s5.373-12 12-12 12 5.373 12 12-5.373 12-12 12z"/></svg>