<svg xmlns="http://www.w3.org/2000/svg" viewBox="0 0 64 60.354" enable-background="new 0 0 64 60.354"><path  d="M7.396 3.675c-2.03 0-3.675 1.646-3.675 3.675 0 2.03 1.646 3.675 3.675 3.675s3.675-1.646 3.675-3.675c0-2.03-1.645-3.675-3.675-3.675zm0-3.675c-4.059 0-7.35 3.291-7.35 7.35 0 4.059 3.291 7.35 7.35 7.35 4.059 0 7.35-3.291 7.35-7.35.001-4.059-3.291-7.35-7.35-7.35zm0 12.862c-3.044 0-5.513-2.469-5.513-5.513s2.469-5.513 5.513-5.513c3.043 0 5.513 2.469 5.513 5.513s-2.469 5.513-5.513 5.513zM0 22.654v14.7h14.7v-14.7h-14.7zm6.435 11.179l-3.282-3.282 1.368-1.368 1.915 1.915 4.103-4.103 1.368 1.368-5.472 5.47zM19.934 1.339h44.066v11.65h-44.066zM19.934 24.153h44.066v11.65h-44.066zM0 45.654v14.7h14.7v-14.7h-14.7zm6.435 11.179l-3.282-3.282 1.368-1.368 1.915 1.915 4.103-4.103 1.368 1.368-5.472 5.47zM19.934 47.153h44.066v11.65h-44.066z"/></svg>