<svg xmlns="http://www.w3.org/2000/svg" viewBox="0 0 64 51.303" enable-background="new 0 0 64 51.303"><path fill-rule="evenodd" clip-rule="evenodd"  d="M58.361 30.204v16.946c0 1.184-.673 2.143-2.155 2.143-.358 0-1.244-.759-2.335-1.903v-45.487c1.091-1.144 1.977-1.903 2.335-1.903 1.616 0 2.155.959 2.155 2.143v17.375c2.918.081 5.639 2.435 5.639 5.343s-2.721 5.262-5.639 5.343zm-34.657 4.132c.134 0 0-19.378 0-19.378 14.797 0 23.568-6.461 28.193-10.89v41.159c-4.625-4.43-13.396-10.891-28.193-10.891zm-8.619 16.967l-4.31-17.012h-4.31s-1.28-2.892-1.864-6.43h-2.446c-1.19 0-2.155-.959-2.155-2.143v-2.143c0-1.184.965-2.143 2.155-2.143h2.446c.584-3.538 1.864-6.429 1.864-6.429h15.084v19.289h-4.31l.543 2.143h2.151l1.077 4.287h-2.142l2.681 10.582h-6.464z"/></svg>