<svg xmlns="http://www.w3.org/2000/svg" viewBox="0 0 64 64" enable-background="new 0 0 64 64"><path fill-rule="evenodd" clip-rule="evenodd"  d="M27.219 45.514c-.096 1.439-.669 2.853-1.769 3.953l-6.55 6.55c-2.412 2.412-6.322 2.412-8.733 0l-2.183-2.183c-2.411-2.411-2.411-6.322 0-8.733l6.55-6.55c1.1-1.1 2.513-1.672 3.952-1.769l5.232-5.232c-4.495-1.903-9.886-1.03-13.55 2.635l-6.55 6.549c-4.823 4.823-4.823 12.643 0 17.466l2.183 2.184c4.823 4.823 12.643 4.823 17.466 0l6.55-6.55c3.664-3.664 4.537-9.055 2.634-13.551l-5.232 5.231zm33.164-39.714l-2.183-2.183c-4.823-4.823-12.643-4.823-17.466 0l-6.55 6.55c-3.664 3.664-4.537 9.055-2.634 13.55l5.232-5.232c.097-1.439.669-2.852 1.769-3.952l6.55-6.55c2.412-2.411 6.321-2.411 8.733 0l2.183 2.183c2.411 2.412 2.411 6.322 0 8.733l-6.55 6.55c-1.1 1.1-2.513 1.672-3.952 1.769l-5.232 5.232c4.495 1.903 9.887 1.03 13.551-2.634l6.55-6.55c4.822-4.822 4.822-12.642-.001-17.466zm-40.391 38.208c1.206 1.206 3.161 1.206 4.367 0l19.65-19.649c1.206-1.206 1.206-3.161 0-4.366-1.206-1.206-3.161-1.206-4.367 0l-19.65 19.649c-1.206 1.205-1.206 3.16 0 4.366z"/></svg>