<svg xmlns="http://www.w3.org/2000/svg" viewBox="0 0 64 64" enable-background="new 0 0 64 64">
	<path d="M30.5,41.4c6.2,0,11.4-4.1,13.1-9.8h-6.8c-1.3,2.2-3.7,3.6-6.4,3.6H13.7c-4.1,0-7.5-3.4-7.5-7.5 c0-4.1,3.4-7.5,7.5-7.5h16.7c1.6,0,3.1,0.5,4.3,1.4h7.9c-2.2-4.5-6.9-7.6-12.2-7.6H13.7C6.2,14,0.1,20.1,0.1,27.7 c0,7.5,6.1,13.7,13.7,13.7H30.5z"/><path d="M50.4,23.5H33.6c-3.5,0-6.7,1.4-9.2,3.6c-1.8,1.7-3.2,3.8-3.9,6.2h6.7c0.5-0.9,1.3-1.7,2.1-2.3 c1.2-0.8,2.7-1.3,4.2-1.3h16.7c4.1,0,7.5,3.4,7.5,7.5c0,4.1-3.3,7.5-7.5,7.5h-4.1H33.6c-1.6,0-3.1-0.5-4.3-1.4h-7.9 c2.2,4.5,6.9,7.6,12.2,7.6h16.7c1.1,0,2.1-0.1,3.1-0.4c6.1-1.4,10.6-6.8,10.6-13.3C64.1,29.6,57.9,23.5,50.4,23.5z"/>
</svg>