<svg xmlns="http://www.w3.org/2000/svg" viewBox="0 0 64 64" enable-background="new 0 0 64 64">
	<path d="M43.7,49c-3.5,2.5-7.7,3.7-11.9,3.6c-0.6,0-1.1,0-1.7-0.1c-0.2,0-0.4-0.1-0.7-0.1c-0.4-0.1-0.9-0.1-1.3-0.2 c-0.3-0.1-0.5-0.1-0.8-0.2c-0.4-0.1-0.8-0.2-1.2-0.3c-0.2-0.1-0.4-0.1-0.6-0.2c-0.5-0.2-0.9-0.3-1.4-0.5c-0.1,0-0.2-0.1-0.3-0.1 c-0.5-0.2-1-0.5-1.5-0.7c0,0,0,0-0.1,0c-1.7-0.9-3.3-2.1-4.6-3.5c0,0-0.1,0-0.1-0.1c-0.4-0.4-0.8-0.9-1.2-1.3 c-0.1-0.1-0.2-0.2-0.2-0.3c-2.8-3.5-4.4-7.9-4.4-12.6h5.3L8.6,19.6L0.1,32.4h5.3c0,5.6,1.8,10.8,4.7,15.1c0,0.1,0.1,0.1,0.1,0.2 c0.3,0.4,0.6,0.8,1,1.3c0.1,0.2,0.2,0.3,0.4,0.5c0.5,0.6,1,1.1,1.5,1.7c0,0.1,0.1,0.1,0.1,0.2c1.8,1.8,3.8,3.3,6,4.5 c0.1,0,0.1,0.1,0.2,0.1c0.6,0.3,1.3,0.6,1.9,0.9c0.2,0.1,0.3,0.2,0.5,0.2c0.6,0.2,1.1,0.4,1.7,0.6c0.3,0.1,0.5,0.2,0.8,0.3 c0.5,0.2,1,0.3,1.6,0.4c0.4,0.1,0.7,0.2,1,0.2c0.1,0,0.3,0.1,0.4,0.1c0.5,0.1,1,0.1,1.5,0.2c0.2,0,0.4,0.1,0.5,0.1 c0.9,0.1,1.8,0.1,2.7,0.1c5.4,0,10.7-1.7,15.2-4.8c1.5-1,1.8-3,0.8-4.5C47.1,48.3,45.1,48,43.7,49z"/><path d="M58.7,32.4c0-5.6-1.7-10.8-4.7-15.1c0-0.1-0.1-0.1-0.1-0.2c-0.4-0.5-0.8-1-1.2-1.5 c-0.1-0.1-0.1-0.1-0.1-0.2c-2.7-3.3-6.1-5.8-10-7.5c-0.1,0-0.2-0.1-0.3-0.1c-0.6-0.3-1.2-0.5-1.9-0.7C40.2,7,40,7,39.8,6.9 c-0.6-0.2-1.1-0.3-1.7-0.4c-0.3-0.1-0.6-0.2-0.9-0.2c-0.1,0-0.3-0.1-0.5-0.1C36.3,6.1,35.9,6,35.4,6c-0.3,0-0.6-0.1-0.9-0.1 c-0.7-0.1-1.4-0.1-2.1-0.1c-0.1,0-0.3,0-0.4,0c0,0,0,0-0.1,0c-5.4,0-10.7,1.6-15.2,4.8c-1.4,1-1.8,3-0.8,4.5c1,1.4,3,1.8,4.5,0.8 c3.5-2.5,7.6-3.7,11.8-3.7c0.6,0,1.2,0,1.8,0.1c0.2,0,0.4,0,0.5,0.1c0.5,0.1,1,0.1,1.4,0.2c0.2,0,0.4,0.1,0.6,0.1 c0.5,0.1,0.9,0.2,1.4,0.4c0.1,0,0.3,0.1,0.4,0.1c0.5,0.2,1,0.3,1.5,0.6c0.1,0,0.1,0,0.2,0.1c3,1.3,5.6,3.3,7.6,5.7c0,0,0,0,0,0 c2.9,3.5,4.6,8,4.6,12.8H47l8.5,12.8l8.5-12.8H58.7z"/>
</svg>
