<svg xmlns="http://www.w3.org/2000/svg" viewBox="0 0 64 64" enable-background="new 0 0 64 64"><g fill-rule="evenodd" clip-rule="evenodd" ><path d="M55.634 64h-47.686c-4.39 0-7.948-3.56-7.948-7.952v-47.718c0-4.393 3.61-8.33 8-8.33h48c4.389 0 8 3.608 8 8v48c0 4.392-3.977 8-8.366 8zm4.366-56c0-2.196-1.805-4-4-4h-48c-2.195 0-4.026 2.133-4.026 4.33v47.718c0 2.196 1.779 3.976 3.974 3.976h47.686c2.194 0 4.366-1.827 4.366-4.024v-48zM12.736 16.32h38.613v4.8h-38.613zM12.736 29.12h38.613v4.8h-38.613zM12.736 41.92h38.613v4.8h-38.613z"/></g></svg>