<svg xmlns="http://www.w3.org/2000/svg" viewBox="0 0 63.999 58.063" enable-background="new 0 0 63.999 58.063"><path d="M1281.34 768.527c17.645 0 32 14.355 32 32s-14.355 32-32 32-32-14.355-32-32 14.355-32 32-32zm0 60.483c15.706 0 28.484-12.778 28.484-28.484s-12.778-28.484-28.484-28.484-28.484 12.778-28.484 28.484 12.778 28.484 28.484 28.484zM1265.573 797.393l15.767 15.768 15.768-15.768 2.487 2.487-18.255 18.254-18.254-18.254zM1279.45 783.516h3.78v32.132h-3.78z"/></g><path fill="#010101" d="M-664.133-493.491l-256-198.715-256 198.715v-81.02l256-198.712 256 198.714v81.018zm-64-7.224v192h-128v-128h-128v128h-128v-192l192-144 192 144z"/><path fill="#9B9A9A" d="M63.999 34.966l-31.999-24.839-32 24.839v-10.127l32-24.839 32 24.839v10.127zm-7.999-.903v24h-16v-16h-16v16h-16v-24l24-18 24 18z"/></svg>