<svg xmlns="http://www.w3.org/2000/svg" viewBox="0 0 81.834 50" enable-background="new 0 0 81.834 50"><path d="M69.353 46.874h-4.375v-39.373c0-1.206-.982-2.187-2.187-2.187h-37.186v-4.375h37.185c3.619 0 6.562 2.944 6.562 6.562v39.373zM67.165 50l-14.668-17.113 3.088-2.649 11.58 13.51 11.58-13.51 3.089 2.649zM56.228 49.061h-37.185c-3.619 0-6.562-2.944-6.562-6.562v-39.373h4.375v39.373c0 1.206.982 2.187 2.187 2.187h37.185v4.375zM26.248 19.762l-11.579-13.51-11.58 13.51-3.089-2.649 14.669-17.113 14.668 17.113z"/></g></svg>