<svg baseProfile="tiny" xmlns="http://www.w3.org/2000/svg" viewBox="0 0 19 19">
  <path d="M17.4 1.6C16.4.6 15 0 13.6 0s-2.8.6-3.8 1.6L6.2 5.2c-1 1-1.6 2.4-1.6 3.8s.6 2.8 1.6 3.8l.4.4c.1.1.3.2.4.2.2 0 .3-.1.4-.2l.8-.8c.2-.2.2-.6 0-.8L8 11C6.9 9.9 6.8 8 8 6.8l3.6-3.6c.6-.6 1.3-.9 2.1-.9s1.5.3 2.1.9c1.2 1.2 1.2 3 0 4.2l-.2.2c.3.8.5 1.6.5 2.5v.5l1.4-1.4c2-2.2 2-5.5-.1-7.6zM5.3 19"/>
  <path d="M12.2 5.9c-.1-.1-.3-.2-.4-.2-.2 0-.3.1-.4.2l-.8.8c-.2.2-.2.6 0 .8l.4.5c1.1 1.1 1.2 3 0 4.2l-3.6 3.6c-.6.6-1.3.9-2.1.9s-1.5-.3-2.1-.9c-1.2-1.2-1.2-3 0-4.2l.2-.2c-.3-.8-.4-1.6-.4-2.5v-.5L1.6 9.9c-2.1 2.1-2.1 5.5 0 7.6 1 1 2.4 1.6 3.8 1.6s2.8-.6 3.8-1.6l3.6-3.6c1-1 1.6-2.4 1.6-3.8s-.6-2.8-1.6-3.8l-.6-.4z"/>
</svg>
