<svg viewBox="0 0 19 19" xmlns="http://www.w3.org/2000/svg">
  <g><path fill="#4F5359" fill-rule="evenodd" d="M17.81 5.344l.003-4.75c0-.23-.134-.44-.344-.538C17.39.02 17.3 0 17.22 0c-.14 0-.275.048-.384.14-1.712 1.444-5.093 3.423-8.523 3.423H1.186C.532 3.563 0 4.093 0 4.75v5.938c0 .656.532 1.187 1.188 1.187h7.2c3.386 0 6.765 1.58 8.476 2.852.105.077.23.117.355.117.09 0 .18-.02.262-.064.2-.1.328-.305.328-.53l-.002-4.156h.595c.328 0 .594-.266.594-.594V5.937c0-.328-.267-.593-.595-.593h-.596zM2.97 13.063c-.182 0-.353.082-.465.222-.113.142-.155.326-.116.502l1.04 4.616c.074.33.42.597.77.597H7c.18 0 .352-.082.464-.223.112-.14.155-.325.115-.502L6.535 13.66c-.074-.33-.418-.598-.77-.598H2.97z"/></g>
</svg>