<svg width="19" height="16" viewBox="0 0 19 16" xmlns="http://www.w3.org/2000/svg">
  <g fill="#4F5359" fill-rule="evenodd">
    <path d="M8.313 0C3.72 0 0 2.687 0 6c0 2.064 1.34 3.83 3.536 4.91 0 1.66-1.038 2.36-1.145 2.51-.01.036-.03.124.02.19.05.07.15.104.3.104 1.86 0 3.62-1.37 4.01-1.828.52.073 1.058.114 1.607.114 4.59 0 8.31-2.687 8.31-6s-3.72-6-8.31-6z"/>
    <path d="M19 9.388c0-1.067-.45-2.058-1.222-2.88-.35 3.7-4.455 6.635-9.465 6.635-.39 0-.785-.02-1.18-.056-.027.024-.062.048-.09.072 1.27.84 2.964 1.37 4.832 1.37.47 0 .93-.04 1.374-.1.33.39 1.84 1.56 3.43 1.56.13 0 .21-.03.25-.09.04-.06.02-.13.01-.168-.09-.127-.98-.726-.98-2.15 1.88-.927 3.03-2.44 3.03-4.21"/>
  </g>
</svg>
