<svg xmlns="http://www.w3.org/2000/svg" viewBox="0 0 19 19">
  <path fill-rule="evenodd" clip-rule="evenodd" fill="#4F5359" d="M.7 15.3L0 19l3.7-.7M18.7 15.5l-6.1-6.1 3.9-3.9-2.9-2.9-3.9 3.8L3.5.3C3.2 0 2.6 0 2.2.3l-2 2c-.3.3-.3.9 0 1.3l6.1 6.1-4.8 4.8 2.9 2.9 4.8-4.8 6.1 6.1c.3.3.9.3 1.3 0l2-2c.5-.3.5-.9.1-1.2zM.9 2.9l2-2 .7.7-1 1 .6.6 1-1 .7.7-.5.5.3.3.5-.5.6.6-1 1 .6.6 1-1L7 5l-.4.6.3.3.5-.5.7.6-1 1 .6.6 1-1 .4.4-2 2L.9 2.9zm15.2 15.2L9.9 12l2-2 .5.5-1 1 .6.6 1-1 .6.6-.5.5.3.3.6-.5.6.6-1 1 .6.6 1-1 .7.7-.5.5.3.3.5-.5.6.6-1 1 .6.6 1-1 .6.6-1.9 2.1zM17.3 4.6l1.4-1.4c.7-.7 0-1.5 0-1.5L17.2.2c-.7-.7-1.5 0-1.5 0l-1.3 1.4 2.9 3z"/>
</svg>