<svg xmlns="http://www.w3.org/2000/svg" viewBox="0 0 19 19">
  <path d="M6.4 5.2l-.9-.9c-.2-.2-.6-.2-.8 0L.2 8.8c-.1.1-.2.3-.2.4v.6c0 .1.1.3.2.4l4.5 4.5c.2.2.6.2.8 0l.8-.8c.2-.2.2-.6 0-.8L2.9 9.5 6.4 6c.2-.2.2-.6 0-.8M12.6 13.8l.8.8c.2.2.6.2.8 0l4.5-4.5c.1-.1.2-.2.2-.4v-.5c0-.1-.1-.3-.2-.4l-4.5-4.5c-.2-.2-.6-.2-.8 0l-.8.8c-.2.2-.2.6 0 .8l3.5 3.5-3.5 3.6c-.2.2-.2.6 0 .8M11.3 4.2h-1.2c-.3 0-.5.2-.6.4l-2.4 9.5c0 .2 0 .4.1.5.1.1.3.2.5.2h1.2c.3 0 .5-.2.6-.4l2.4-9.5c0-.2 0-.4-.1-.5-.2-.2-.3-.2-.5-.2"/>
</svg>