<svg xmlns="http://www.w3.org/2000/svg" viewBox="0 0 19 19">
  <path fill="#4F5359" d="M18.6 0h-.2c-.2 0-.3.1-.4.2l-2.2 2.2C14 .8 11.8 0 9.5 0 4.5 0 .3 3.9 0 8.9c0 .2 0 .3.2.4.1.1.3.2.4.2h1.2c.3 0 .6-.2.6-.5.3-3.7 3.4-6.6 7.1-6.6 1.7 0 3.3.6 4.6 1.7l-2 2c-.2.2-.2.4-.1.6 0 .3.2.4.5.4h5.9c.3 0 .6-.3.6-.6V.6c0-.2-.1-.5-.4-.6M.4 19h.2c.2 0 .3-.1.4-.2l2.2-2.2C5 18.2 7.2 19 9.5 19c5 0 9.2-3.9 9.5-8.9 0-.2 0-.3-.2-.4-.1-.1-.3-.2-.4-.2h-1.2c-.3 0-.6.2-.6.5-.3 3.7-3.4 6.6-7.1 6.6-1.7 0-3.3-.6-4.6-1.7l2-2c.2-.2.2-.4.1-.6 0-.3-.2-.4-.5-.4H.6c-.3 0-.6.3-.6.6v5.9c0 .2.1.5.4.6"/>
</svg>