<svg width="19" height="17" viewBox="0 0 19 17" xmlns="http://www.w3.org/2000/svg">
  <path fill-rule="evenodd" d="M11.93 12.59c.207-.02.37-.22.544-.387.383-.367 1.33-1.8 1.33-1.8s.373-.404.925-.072c.55.338 1.772 1.16 3.9 2.43.333.27.184.7.184.7s-1.49 2.29-3.82 3.41c-.524.315-1.74-.02-1.74-.02S3.47 14.76.1 5.24C-.11 4.81.08 4.044.08 4.044S.37 2.344 3.065.16c.436-.35.902-.016.902-.016s1.436 1.32 3.08 3.492c.083.11.098.252.077.384-.024.158-.1.3-.176.345C5.8 5.235 5.126 6.127 5 6.285c-.123.16-.123.443.138.754.263.31 2.344 3.49 6.014 5.28.232.11.527.29.776.27z"/>
</svg>
