<svg xmlns="http://www.w3.org/2000/svg" viewBox="0 0 64 54.894" enable-background="new 0 0 64 54.894"><path  d="M34.269 0c-16.42 0-29.73 12.289-29.73 27.447 0 4.118.984 8.023 2.744 11.529l-7.032 12.725c-.391.707-.32 1.579.179 2.214.386.492.972.767 1.577.767.177 0 .355-.024.531-.072l15.395-4.228c4.688 2.852 10.302 4.514 16.336 4.514 16.42 0 29.73-12.289 29.73-27.447s-13.31-27.449-29.73-27.449zm-1.158 42.459c-.204.675-.538 1.313-.965 1.844-.355.441-.763.81-1.216 1.096-.252.162-.519.302-.789.413-.094.038-.193.057-.291.057-.174 0-.346-.059-.486-.172-.219-.177-.326-.46-.278-.739.049-.288.083-.547.104-.793.032-.414.032-.775-.001-1.097-.036-.369-.114-.717-.232-1.038-.104-.282-.244-.563-.439-.884-.182-.302-.382-.596-.611-.901-.263-.353-.571-.729-.81-1.016l-.012-.013-.086-.1-.131-.154-.069-.079.001-.001-.267-.317c-.22-.261-.449-.581-.688-.963-.454-.738-.782-1.542-.951-2.329-.178-.811-.194-1.688-.045-2.465.165-.89.52-1.558.789-1.96.313-.471.691-.878 1.123-1.208.27-.205.551-.378.838-.516.249-.118.542-.096.77.06.228.156.356.423.336.699-.015.209-.034.526-.024.862.011.404.051.77.119 1.088.073.354.187.679.34.972.167.324.357.589.52.807.193.254.413.516.668.797l.027.031.11.121.067.07.027.03.161.173.049.049.116.125.179.196.358.418c.508.623.93 1.301 1.253 2.011.354.777.582 1.609.659 2.406.083.82.003 1.679-.223 2.42zm14.267-4.3c-.447 1.478-1.178 2.876-2.114 4.04-.772.961-1.666 1.768-2.657 2.397-.763.492-1.562.877-2.372 1.142-.347.118-.697.212-1.061.283l-.148.014c-.208 0-.409-.083-.556-.236-.182-.189-.257-.457-.2-.714.068-.303.142-.654.218-1.034.102-.556.231-1.315.302-2.147.071-.918.07-1.71-.002-2.415-.078-.803-.248-1.564-.506-2.266-.229-.617-.535-1.235-.964-1.942-.403-.661-.841-1.307-1.339-1.974-.451-.605-.997-1.29-1.772-2.221l-.012-.013-.21-.243-.278-.327-.163-.188-.56-.669c-.497-.588-.999-1.29-1.522-2.129-.99-1.611-1.708-3.37-2.079-5.093-.391-1.78-.427-3.698-.101-5.397.286-1.545.883-3.033 1.728-4.298.688-1.035 1.517-1.927 2.463-2.649.742-.565 1.517-1.014 2.304-1.337.375-.156.754-.284 1.124-.381.248-.066.512-.003.706.167.193.169.291.424.26.68-.039.328-.08.7-.115 1.12-.049.631-.097 1.387-.074 2.174.023.886.112 1.689.262 2.388.159.772.41 1.486.746 2.128.29.563.639 1.104 1.132 1.757.422.555.908 1.136 1.486 1.775l.032.038.253.277.169.177.026.031c.106.13.234.26.358.386l.114.116.248.268.379.417c.165.171.484.542.797.929 1.117 1.371 2.042 2.854 2.747 4.405.777 1.703 1.276 3.525 1.444 5.27.179 1.816.008 3.648-.493 5.294z"/></svg>