<svg xmlns="http://www.w3.org/2000/svg" viewBox="0 0 64 54.894" enable-background="new 0 0 64 54.894"><path  d="M34.269 0c-16.42 0-29.73 12.288-29.73 27.447 0 4.118.984 8.023 2.744 11.529l-7.032 12.725c-.391.707-.32 1.579.179 2.214.386.491.972.767 1.577.767.177 0 .355-.024.531-.072l15.395-4.228c4.688 2.852 10.302 4.514 16.336 4.514 16.42 0 29.73-12.288 29.73-27.447s-13.31-27.449-29.73-27.449zm.047 38.668s-12.2-7.229-12.2-14.992c0-4.129 3.345-7.476 7.471-7.476 1.794 0 3.44.633 4.728 1.688 1.288-1.055 2.934-1.688 4.729-1.688 4.126 0 7.471 3.347 7.471 7.476.001 7.762-12.199 14.992-12.199 14.992z"/></svg>