<svg xmlns="http://www.w3.org/2000/svg" viewBox="0 0 64 64.002" enable-background="new 0 0 64 64.002"><path d="M32 47.097c-8.324 0-15.095-6.773-15.095-15.096s6.772-15.096 15.095-15.096 15.095 6.773 15.095 15.096-6.771 15.096-15.095 15.096zm0-27.047c-6.59 0-11.952 5.361-11.952 11.951s5.362 11.951 11.952 11.951 11.952-5.361 11.952-11.951-5.362-11.951-11.952-11.951zM36.514 64.002h-9.027l-2.605-7.81c-1.722-.506-3.383-1.194-4.956-2.052l-7.361 3.681-6.386-6.384 3.683-7.362c-.858-1.57-1.545-3.231-2.052-4.956l-7.81-2.604v-9.028l7.81-2.603c.507-1.725 1.194-3.386 2.052-4.956l-3.683-7.362 6.386-6.385 7.361 3.681c1.573-.858 3.234-1.546 4.956-2.052l2.605-7.81h9.027l2.605 7.81c1.722.506 3.383 1.194 4.956 2.052l7.361-3.681 6.386 6.385-3.683 7.362c.858 1.57 1.545 3.231 2.052 4.956l7.809 2.603v9.028l-7.81 2.603c-.507 1.725-1.194 3.386-2.052 4.956l3.683 7.362-6.386 6.384-7.361-3.681c-1.573.858-3.234 1.546-4.956 2.052l-2.604 7.811zm-6.762-3.145h4.497l2.423-7.269.829-.213c2.014-.517 3.941-1.314 5.725-2.37l.738-.437 6.851 3.426 3.18-3.18-3.427-6.852.437-.738c1.053-1.78 1.851-3.706 2.371-5.725l.213-.83 7.269-2.423v-4.495l-7.269-2.423-.213-.83c-.52-2.019-1.317-3.946-2.371-5.725l-.437-.738 3.427-6.852-3.18-3.18-6.851 3.426-.738-.437c-1.785-1.056-3.711-1.853-5.725-2.37l-.829-.213-2.423-7.269h-4.497l-2.423 7.269-.829.217c-2.014.517-3.941 1.314-5.725 2.37l-.738.437-6.851-3.426-3.18 3.18 3.427 6.852-.437.738c-1.053 1.78-1.851 3.706-2.371 5.725l-.213.83-7.269 2.423v4.495l7.269 2.423.213.83c.52 2.019 1.317 3.946 2.371 5.725l.437.738-3.427 6.852 3.18 3.18 6.851-3.426.738.437c1.785 1.056 3.711 1.853 5.725 2.37l.829.213 2.423 7.265z"/></g></svg>