<svg xmlns="http://www.w3.org/2000/svg" viewBox="0 0 64.156 64.021" enable-background="new 0 0 64.156 64.021"><path d="M27.519 64.021c-1.95 0-3.78-.756-5.152-2.128l-20.237-20.237c-2.84-2.84-2.84-7.463 0-10.303l27.067-27.106c2.361-2.36 6.824-4.247 10.161-4.247h17.302c4.018 0 7.495 3.345 7.495 7.363v17.302c0 3.337-1.953 7.801-4.314 10.161l-27.12 27.067c-1.37 1.372-3.252 2.128-5.202 2.128zm11.839-59.021c-2.166 0-5.409 1.158-6.941 2.69l-27.067 26.975c-1.065 1.065-1.065 2.753 0 3.818l20.237 20.214c1.025 1.023 2.839 1.011 3.864-.012l26.949-27.073c1.532-1.532 2.756-4.782 2.756-6.947v-17.302c0-1.506-.989-2.363-2.496-2.363h-17.302zM45.733 27.239c-4.934 0-8.948-4.014-8.948-8.948s4.014-8.948 8.948-8.948 8.948 4.014 8.948 8.948-4.015 8.948-8.948 8.948zm0-13.661c-2.599 0-4.712 2.113-4.712 4.712s2.113 4.712 4.712 4.712 4.712-2.113 4.712-4.712-2.113-4.712-4.712-4.712z"/></g></svg>