<svg xmlns="http://www.w3.org/2000/svg" viewBox="0 0 64 64" enable-background="new 0 0 64 64"><path d="M46.655 30.071h3.985c-.967-8.548-7.776-15.344-16.33-16.295v3.991h-4.115v-3.992c-8.554.951-15.361 7.747-16.331 16.295h3.982v4.115h-3.995c.935 8.589 7.76 15.426 16.343 16.38v-3.991h4.115v3.991c8.582-.955 15.408-7.792 16.341-16.379h-3.996v-4.115zm-14.402 8.229c-3.409 0-6.173-2.764-6.173-6.173 0-3.408 2.764-6.172 6.173-6.172 3.408 0 6.172 2.764 6.172 6.172 0 3.409-2.764 6.173-6.172 6.173zM32 0c-17.672 0-32 14.328-32 32s14.328 32 32 32 32-14.328 32-32-14.328-32-32-32zm22.788 34.185c-.963 10.861-9.623 19.535-20.478 20.519v4.216h-4.115v-4.216c-10.854-.981-19.516-9.66-20.479-20.519h-4.213v-4.115h4.219c1-10.82 9.648-19.453 20.474-20.434v-4.213h4.115v4.213c10.825.981 19.471 9.614 20.473 20.434h4.217v4.115h-4.213z"/></g></svg>