<svg xmlns="http://www.w3.org/2000/svg" viewBox="0 0 64 64" enable-background="new 0 0 64 64"><path  d="M32 11.428c-11.361 0-20.572 9.21-20.572 20.571 0 11.363 9.21 20.574 20.572 20.574 11.361 0 20.571-9.211 20.571-20.574 0-11.361-9.21-20.571-20.571-20.571zm10.977 23.242h-10.977c-1.443 0-2.67-1.227-2.67-2.671v-15.103c0-1.443 1.227-2.612 2.67-2.612 1.443 0 2.67 1.169 2.67 2.612v12.434h8.308c1.442 0 2.613 1.227 2.613 2.669-.001 1.444-1.171 2.671-2.614 2.671zm-10.977-34.67c-17.644 0-32 14.355-32 32.001 0 17.644 14.356 31.999 32 31.999s32-14.355 32-31.999c0-17.646-14.356-32.001-32-32.001zm0 56.707c-13.623 0-24.708-11.083-24.708-24.706 0-13.625 11.085-24.709 24.708-24.709 13.623 0 24.707 11.084 24.707 24.708 0 13.624-11.084 24.707-24.707 24.707z"/></svg>