<svg xmlns="http://www.w3.org/2000/svg" viewBox="0 0 52.445 64" enable-background="new 0 0 52.445 64"><path d="M41.181 33.856l-14.959-14.959-14.958 14.959 2.037 2.037 11.373-11.372v39.479h3.097v-39.479l11.372 11.372z"/><path fill-rule="evenodd" clip-rule="evenodd" d="M45.889 0h-39.334c-3.596 0-6.555 3.226-6.555 6.826v34.907c0 3.599 2.916 6.517 6.513 6.517h10.27v-3.258h-10.27c-1.798 0-3.256-1.459-3.256-3.258v-34.908c0-1.8 1.501-3.548 3.299-3.548h39.334c1.799 0 3.278 1.478 3.278 3.278v35.138c0 1.8-1.779 3.297-3.578 3.297h-9.927v3.258h9.927c3.597 0 6.855-2.956 6.855-6.555v-35.138c0-3.599-2.959-6.556-6.556-6.556z"/></g></svg>