<svg xmlns="http://www.w3.org/2000/svg" viewBox="0 0 64 64" enable-background="new 0 0 64 64"><path  d="M54.627 9.373c6.045 6.044 9.373 14.08 9.373 22.627s-3.329 16.583-9.373 22.627c-6.044 6.044-14.08 9.373-22.627 9.373s-16.583-3.329-22.627-9.373c-6.044-6.044-9.373-14.079-9.373-22.627s3.328-16.583 9.373-22.627c6.044-6.044 14.08-9.373 22.627-9.373s16.583 3.329 22.627 9.373zm-2.828 42.426c3.941-3.941 6.562-8.85 7.642-14.191-.842 1.24-1.648 1.7-2.146-1.075-.514-4.524-4.669-1.634-7.282-3.241-2.75 1.854-8.932-3.604-7.881 2.552 1.621 2.776 8.75-3.716 5.197 2.159-2.267 4.101-8.29 13.183-7.507 17.891.099 6.859-7.008 1.43-9.457-.845-1.647-4.557-.561-12.523-4.869-14.755-4.675-.203-8.688-.628-10.5-5.854-1.09-3.739 1.16-9.306 5.167-10.165 5.866-3.685 7.961 4.316 13.462 4.465 1.708-1.787 6.364-2.355 6.75-4.359-3.609-.637 4.579-3.035-.345-4.399-2.717.32-4.467 2.817-3.023 4.935-5.265 1.228-5.433-7.619-10.494-4.829-.129 4.412-8.264 1.43-2.815.536 1.872-.818-3.054-3.188-.393-2.758 1.307-.071 5.708-1.613 4.517-2.65 2.451-1.521 4.51 3.643 6.909-.118 1.732-2.892-.726-3.426-2.897-1.96-1.224-1.37 2.161-4.33 5.146-5.609.995-.426 1.945-.658 2.672-.593 1.504 1.737 4.284 2.038 4.43-.209-3.725-1.785-7.831-2.727-12.082-2.727-6.101 0-11.904 1.939-16.707 5.524 1.291.591 2.023 1.327.78 2.268-.966 2.878-4.886 6.742-8.326 6.195-1.787 3.082-2.964 6.476-3.467 10.034 2.882.953 3.546 2.841 2.927 3.472-1.469 1.28-2.371 3.096-2.836 5.083.938 5.74 3.636 11.03 7.829 15.223 5.29 5.289 12.321 8.201 19.8 8.201 7.479 0 14.511-2.912 19.799-8.201z"/></svg>